<?xml version="1.0" standalone="no"?>
<!DOCTYPE svg PUBLIC "-//W3C//DTD SVG 1.1//EN" "http://www.w3.org/Graphics/SVG/1.1/DTD/svg11.dtd" >
<svg xmlns="http://www.w3.org/2000/svg">
<metadata></metadata>
<defs>
<font id="latin_modern_roman5_bold" horiz-adv-x="1552" >
<font-face units-per-em="2048" ascent="1651" descent="-397" />
<missing-glyph horiz-adv-x="1058" />
<glyph unicode="&#xfb01;" horiz-adv-x="1785" d="M115 772v137h204v185q0 63 29.5 114.5t76.5 86.5t112.5 61.5t131 41.5t140 24.5t131 12.5t111.5 3q81 0 147 -12.5t109 -34t74 -47.5t47.5 -56.5t24 -57t7.5 -52.5q0 -79 -48.5 -119.5t-108.5 -40.5q-59 0 -107.5 40.5t-48.5 117.5q0 67 49 116q-72 31 -182 31 q-177 0 -301 -47q-44 -17 -75 -39.5t-46 -40.5t-23 -42.5t-9 -36.5t-1 -32v-176h504l2 6l401 17v-795h148v-137q-109 8 -277 8q-151 0 -274 -8v137h147v561q0 51 -12 62.5t-57 11.5h-566v-635h148v-137q-109 8 -277 8q-151 0 -274 -8v137h147v635h-204z" />
<glyph unicode="&#xfb02;" horiz-adv-x="1785" d="M115 772v137h204v185q0 82 49.5 145t124.5 99.5t177 60t193.5 31.5t187.5 8q139 0 229 -23q14 -4 27 -4l159 10v-1284h148v-137q-109 8 -277 8q-151 0 -274 -8v137h147v635h-635v-635h148v-137q-109 8 -277 8q-151 0 -274 -8v137h147v635h-204zM559 909h651v199 q-67 38 -67 127q0 36 12 65l4 11q0 12 -141 12q-196 0 -311 -49q-52 -21 -84.5 -47.5t-45 -55.5t-15.5 -45.5t-3 -40.5v-176z" />
<glyph unicode="&#xfb04;" horiz-adv-x="2678" d="M115 772v137h204v185q0 62 28 113t73.5 86t109 62t128 42t138 25t132 13t116.5 3q256 0 349 -99q207 99 551 99q139 0 229 -23q14 -4 27 -4l159 10v-1284h148v-137q-109 8 -277 8q-151 0 -274 -8v137h147v635h-635v-635h148v-137q-109 8 -277 8q-151 0 -274 -8v137h147 v635h-637v-635h148v-137q-109 8 -277 8q-151 0 -274 -8v137h147v635h-204zM559 909h653v172q-67 38 -67 127q0 50 31 97q-70 18 -168 18q-184 0 -303 -51q-41 -17 -70.5 -38.5t-43.5 -39.5t-22 -42t-9 -36t-1 -31v-176zM1452 909h651v199q-67 38 -67 127q0 36 12 65l4 11 q0 12 -141 12q-197 0 -312 -49q-42 -17 -71.5 -39.5t-44 -40.5t-22 -42t-8.5 -36t-1 -31v-176z" />
<glyph horiz-adv-x="0" />
<glyph horiz-adv-x="682" />
<glyph unicode=" "  horiz-adv-x="1058" />
<glyph unicode="&#x09;" horiz-adv-x="1058" />
<glyph unicode="&#xa0;" horiz-adv-x="1058" />
<glyph unicode="!" horiz-adv-x="972" d="M311 176q0 72 52 124t124 52t124.5 -52t52.5 -124t-52.5 -124t-124.5 -52t-124 52t-52 124zM311 1292q0 72 53.5 118t122.5 46q70 0 123.5 -46t53.5 -118q0 -18 -5 -57l-84 -680q-6 -44 -19 -55t-54 -11h-29q-41 0 -54.5 11t-19.5 55l-84 680q-4 31 -4 57z" />
<glyph unicode="&#x22;" horiz-adv-x="1339" d="M309 1303q-6 56 35 96.5t102 40.5t102.5 -40.5t35.5 -96.5l-52 -439h-172zM756 1303q-6 56 35 96.5t102 40.5t102 -40.5t35 -96.5l-51 -439h-172z" />
<glyph unicode="#" horiz-adv-x="2543" d="M201 238q0 88 106 88h471l146 372h-617q-106 0 -106 88t118 88h676l191 480q27 67 86 67q37 0 62.5 -25.5t25.5 -62.5q0 -20 -12 -47l-164 -412h465l190 480q27 67 86 67q37 0 62.5 -25.5t25.5 -62.5q0 -20 -12 -47l-164 -412h387q119 0 119 -88t-107 -88h-471l-145 -372 h616q107 0 107 -88t-119 -88h-676l-190 -480q-27 -67 -86 -67q-37 0 -62.5 25.5t-25.5 62.5l174 459h-463l-190 -480q-27 -67 -87 -67q-37 0 -62.5 25.5t-25.5 62.5l175 459h-386q-118 0 -118 88zM967 326h465l145 372h-465z" />
<glyph unicode="$" d="M201 389q0 79 45.5 119.5t107.5 40.5q66 0 110 -44t44 -110q0 -46 -24 -85t-72 -58q37 -56 115.5 -88.5t181.5 -40.5v465q-119 20 -200.5 48.5t-162.5 90.5q-55 43 -100 115.5t-45 171.5q0 48 12.5 97t47.5 105.5t89.5 100.5t147.5 77.5t211 41.5v100h137v-100 q40 -1 79.5 -5.5t91.5 -16t96.5 -28t90 -46t77 -66.5t51.5 -92t20 -121q0 -81 -47 -120.5t-107 -39.5q-65 0 -109.5 42.5t-44.5 111.5q0 46 24 83t67 56q-81 89 -289 104v-409q95 -15 172.5 -43.5t129 -61t90.5 -73.5t60 -78t34 -77t16.5 -67t3.5 -53q0 -58 -15.5 -114.5 t-53 -114t-93.5 -103t-145 -78t-199 -40.5v-101h-137v101q-21 1 -38.5 2.5t-56.5 7t-71.5 13.5t-77 23.5t-79 35.5t-70.5 51t-60 68.5t-39.5 89.5t-15.5 112zM401 1106q0 -148 308 -193v385q-150 -10 -229 -65.5t-79 -126.5zM846 123q86 8 149 32.5t95 57.5t46.5 65.5 t14.5 65.5q0 83 -80 141t-225 80v-442z" />
<glyph unicode="%" horiz-adv-x="2543" d="M201 1124q0 182 118 297t312 115q51 0 97 -10.5t67 -20t57 -28.5q302 -162 588 -162q96 0 178 17t143.5 48.5t100 58.5t77.5 62q35 35 70 35q36 0 62 -26t26 -62q0 -18 -6.5 -32.5t-14 -23.5t-24.5 -26l-1436 -1436q-18 -18 -26 -25t-22.5 -13.5t-32.5 -6.5 q-37 0 -63 25.5t-26 62.5t35 72l1180 1180q-98 -23 -217 -23q-122 0 -223 21.5t-222 62.5q2 -4 7.5 -23.5t11.5 -60t6 -78.5q0 -187 -107 -300t-286 -113q-191 0 -310.5 113t-119.5 300zM457 1122q0 -34 0.5 -53.5t4 -55t9.5 -57.5t19 -49.5t31.5 -43.5t47.5 -27t66 -11 q89 0 154 73t65 226q0 148 -63.5 222.5t-155.5 74.5q-32 0 -58.5 -7.5t-44.5 -23t-31.5 -32t-21.5 -43t-12.5 -46t-6.5 -51t-2.5 -48.5t-0.5 -48zM1520 299q0 182 118 297t312 115q178 0 285.5 -113t107.5 -301q0 -182 -106 -297t-287 -115q-191 0 -310.5 113.5 t-119.5 300.5zM1776 297q0 -34 0.5 -53.5t4 -55t9.5 -57.5t19 -49.5t31.5 -43.5t47.5 -27t66 -11q89 0 154 73t65 226q0 148 -63.5 222.5t-155.5 74.5q-32 0 -58.5 -7.5t-44.5 -23t-31.5 -32t-21.5 -43t-12.5 -46t-6.5 -51t-2.5 -48.5t-0.5 -48z" />
<glyph unicode="&#x26;" horiz-adv-x="2377" d="M158 295q0 50 17.5 92t53 76t62 53t71.5 47l211 127q-86 187 -86 367q0 94 41 172t107.5 126.5t146 74.5t160.5 26q143 0 238.5 -90t95.5 -213q0 -32 -14 -65.5t-32 -61t-55.5 -63t-65 -58.5t-80.5 -60.5t-81.5 -56t-87.5 -57.5q47 -77 111.5 -153t128.5 -134t107 -93 t77 -60q73 51 131.5 99t124.5 115.5t109 115t135 151.5h-129v137q280 -8 295 -8q155 0 245 8v-137h-206q-135 -155 -203.5 -230t-171 -169.5t-205.5 -165.5q184 -105 358 -105q233 0 240 125h170q-2 -69 -38.5 -121t-97.5 -82t-134 -44.5t-156 -14.5q-311 0 -569 111 q-246 -111 -488 -111q-153 0 -272.5 36t-191.5 112t-72 182zM465 352q0 -99 73.5 -174.5t196.5 -75.5q19 0 50.5 2t107.5 16.5t135 39.5q-98 60 -211 181t-190 247q-23 -13 -36 -21.5t-40.5 -31.5t-43 -45.5t-29 -59.5t-13.5 -78zM737 1139q0 -153 70 -303q62 39 108.5 73 t93 76t72 85t25.5 83q0 71 -44 129.5t-120 58.5q-24 0 -50 -6t-54 -21.5t-50 -37.5t-36.5 -58t-14.5 -79z" />
<glyph unicode="'" horiz-adv-x="892" d="M309 1303q-6 56 35 96.5t102 40.5t102.5 -40.5t35.5 -96.5l-52 -439h-172z" />
<glyph unicode="(" horiz-adv-x="1222" d="M305 512q0 104 19.5 206.5t62 211.5t118.5 219t181 209q55 49 146 113.5t133 64.5q57 0 57 -45q0 -23 -18 -37q-215 -158 -322 -375q-129 -258 -129 -567q0 -131 23.5 -255t73.5 -247t138.5 -235.5t208.5 -200.5q25 -19 25 -41q0 -45 -57 -45q-46 0 -140 69.5t-151 123.5 q-130 123 -215.5 271.5t-119.5 284.5t-34 275z" />
<glyph unicode=")" horiz-adv-x="1222" d="M201 -467q0 23 20 39q44 33 71.5 56.5t76.5 71t92.5 110t79.5 135.5q129 258 129 567q0 129 -23 250.5t-72.5 245t-139 237.5t-212.5 205q-22 22 -22 41q0 45 57 45q46 0 140 -69.5t151 -123.5q130 -123 215.5 -271.5t119.5 -284.5t34 -275q0 -104 -19.5 -206.5 t-62 -211.5t-118.5 -219t-181 -209q-55 -49 -146 -113.5t-133 -64.5q-57 0 -57 45z" />
<glyph unicode="*" d="M231 901q0 78 84 100l293 80l-293 80q-84 22 -84 101q0 49 33 82.5t74 33.5q11 0 20 -2.5t13 -4.5t24 -13l320 -189l-43 236q-1 8 -3.5 21t-2.5 16q0 39 33 66.5t77 27.5t77.5 -27.5t33.5 -66.5q0 -15 -4 -27l-45 -246l284 170q5 3 23 12.5t26.5 13.5t21 8.5t21.5 4.5 q41 0 74 -33.5t33 -82.5q0 -79 -84 -101l-293 -80l293 -80q84 -22 84 -100q0 -49 -33 -83t-74 -34q-6 0 -10.5 0.5t-7.5 1t-8.5 3t-7.5 3.5t-10.5 6t-12.5 7l-319 188l43 -235q1 -8 3.5 -21t2.5 -16q0 -39 -33.5 -66.5t-77.5 -27.5t-77 27.5t-33 66.5q0 15 4 27l45 245 l-285 -170q-5 -3 -23 -12.5t-26.5 -13.5t-21 -8.5t-21.5 -4.5q-41 0 -74 34t-33 83z" />
<glyph unicode="+" horiz-adv-x="2377" d="M201 512q0 88 110 88h791v791q0 110 88 110t88 -110v-791h788q111 0 111 -88t-111 -88h-788v-791q0 -110 -88 -110t-88 110v791h-791q-110 0 -110 88z" />
<glyph unicode="," horiz-adv-x="892" d="M270 176q0 75 49.5 125.5t124.5 50.5q95 0 153 -78.5t58 -195.5q0 -84 -25 -163t-62 -133.5t-77.5 -96.5t-72 -62t-45.5 -20q-21 0 -41.5 21t-20.5 40q0 18 7.5 27t29.5 24q68 46 120.5 123.5t68.5 184.5q-31 -23 -91 -23q-79 0 -127.5 51.5t-48.5 124.5z" />
<glyph unicode="-" horiz-adv-x="1058" d="M68 332v246h790v-246h-790z" />
<glyph unicode="." horiz-adv-x="892" d="M270 176q0 72 52 124t124 52t124.5 -52t52.5 -124t-52.5 -124t-124.5 -52t-124 52t-52 124z" />
<glyph unicode="/" d="M201 -424q0 24 16 53l963 1850q28 57 84 57q36 0 62 -26t26 -62q0 -22 -17 -53l-962 -1850q-28 -57 -84 -57q-36 0 -62 26t-26 62z" />
<glyph unicode="0" d="M150 649q0 81 6.5 150t24 143t46.5 132.5t77.5 112.5t112.5 89.5t155.5 56.5t203.5 21q113 0 205.5 -21.5t156.5 -57.5t112.5 -90.5t77 -113t46 -132.5t23.5 -142t6 -148q0 -81 -7 -150t-25.5 -140.5t-48 -128.5t-78 -107.5t-113 -84.5t-154.5 -53.5t-201 -19.5 q-109 0 -198 19t-153.5 52.5t-113 83.5t-79 106.5t-49.5 128t-26 141.5t-7 153zM457 680q0 -310 28 -414q13 -47 40.5 -82.5t58 -54.5t69 -31t66.5 -15t57 -3q36 0 71.5 6t81.5 23t82.5 56t53.5 97q31 100 31 418q0 94 -1 148t-9 130.5t-23 120.5q-29 83 -107.5 121.5 t-179.5 38.5q-107 0 -182.5 -40t-101.5 -109q-16 -46 -24.5 -122t-9.5 -131.5t-1 -156.5z" />
<glyph unicode="1" d="M279 1085v138h55q37 0 75 2.5t115.5 13t156 40.5t138.5 75h43q49 0 63.5 -15t14.5 -63v-1139h371v-137q-100 8 -508 8t-508 -8v137h371v1000q-153 -52 -332 -52h-55z" />
<glyph unicode="2" d="M182 0v63q0 36 5 48t30 30l571 416q54 39 96 77t80.5 85t59 101t20.5 112q0 90 -54 156.5t-138.5 97.5t-187.5 31q-115 0 -197 -41q53 -53 53 -127q0 -80 -51.5 -125t-118.5 -45q-61 0 -114.5 44t-53.5 128q0 62 26.5 111.5t64.5 80.5t95.5 53.5t105 33t107.5 16.5t88 7 t62 1q301 0 470 -113.5t169 -306.5q0 -32 -4.5 -60.5t-16 -55t-22 -48t-32.5 -45t-38 -40.5t-47.5 -39t-51 -36t-59 -37t-61 -35.5t-67.5 -37.5q-108 -58 -344 -209h305q158 0 207 6q15 3 33 40.5t28 94.5h170l-80 -432h-1108z" />
<glyph unicode="3" d="M158 305q0 82 50 131t128 49q76 0 126 -50.5t50 -125.5q0 -94 -74 -147q110 -72 307 -72q80 0 138 20.5t87.5 49t47 71t21 73t3.5 69.5q0 28 -2 51.5t-9.5 53.5t-20 53.5t-35 47.5t-53 40t-76.5 26t-103 10h-141q-25 0 -37.5 2t-23.5 15.5t-11 40.5q0 49 37 57 q42 6 129 6q70 3 125 25t86.5 52.5t51.5 69.5t27 71t7 61q0 40 -10 70.5t-35.5 57.5t-75 41.5t-122.5 14.5q-155 0 -258 -72q4 -2 10.5 -6.5t19.5 -17t23.5 -28t19 -40.5t8.5 -53q0 -75 -49 -120.5t-116 -45.5q-64 0 -115 44t-51 124q0 146 138.5 238t379.5 92 q265 0 408 -85.5t143 -217.5q0 -67 -26.5 -124.5t-70.5 -97.5t-90 -66.5t-96 -43.5q160 -38 263.5 -128t103.5 -220q0 -52 -17.5 -104t-63.5 -107.5t-116 -98t-185.5 -69.5t-260.5 -27q-287 0 -440.5 92t-153.5 248z" />
<glyph unicode="4" d="M117 317v138l741 880q19 24 33 29.5t53 5.5h146q49 0 63 -15t14 -63v-837h269v-138h-269v-180h269v-137q-109 8 -418 8q-330 0 -430 -8v137h289v180h-760zM295 455h616v733z" />
<glyph unicode="5" d="M182 313q0 80 49.5 123t112.5 43q65 0 113.5 -45t48.5 -117q0 -95 -82 -141q100 -86 285 -86q71 0 126.5 13t91 31t60.5 49.5t37 56.5t18.5 65t7.5 61t1 58q0 27 -0.5 43t-2.5 45t-6.5 47t-14 44t-22.5 42.5t-33 35t-46 29.5t-61.5 18t-78.5 7q-228 0 -342 -114 q-28 -27 -39 -32t-43 -5q-50 0 -63.5 14.5t-13.5 65.5v616q0 21 1.5 33.5t12 26.5t31.5 14q10 0 30 -8q212 -58 410 -58q87 0 181 13t128 21t107 26l22 6q45 0 45 -58q0 -23 -4.5 -31.5t-25.5 -29.5q-233 -238 -582 -238q-86 1 -164 9v-226q134 70 320 70q119 0 217 -26 t163 -68.5t109.5 -100t64 -118.5t19.5 -125q0 -87 -39.5 -165t-117 -142t-207 -102t-293.5 -38q-241 0 -386 97.5t-145 250.5z" />
<glyph unicode="6" d="M158 653q0 215 100 375t275.5 243t402.5 83q93 0 164.5 -19.5t111.5 -49t65.5 -69t33.5 -73.5t8 -70q0 -77 -47 -117.5t-107 -40.5q-64 0 -108.5 42.5t-44.5 111.5q0 37 15.5 68.5t29 44t26.5 20.5q-53 37 -147 37q-112 0 -201 -37t-139 -90q-70 -78 -90 -160.5 t-27 -244.5q62 80 153.5 122.5t196.5 42.5q254 0 410 -123.5t156 -326.5q0 -88 -29 -158.5t-70 -113t-102 -82.5q-96 -63 -193.5 -83t-214.5 -20q-316 0 -472 178.5t-156 509.5zM485 453q0 -40 2.5 -72.5t10 -71.5t20.5 -69t35.5 -59t53.5 -48.5t76.5 -31t102.5 -11.5 q70 0 121 11.5t81.5 38.5t48.5 51.5t25.5 71.5t9 75.5t1.5 85.5q0 68 -2 102t-15.5 87t-40.5 78.5t-80.5 46t-131.5 20.5q-97 0 -171.5 -45t-110.5 -113.5t-36 -146.5z" />
<glyph unicode="7" d="M201 887l88 479h170q1 -9 3 -15t8 -13t18.5 -11t31.5 -4l447 -4h510q0 -92 -2 -100q-7 -17 -17 -27l-209 -191l-127 -112q-39 -37 -58 -56t-53.5 -60.5t-52.5 -76t-42 -92.5t-36 -121t-21.5 -151.5t-10.5 -192.5q0 -26 -1.5 -42.5t-12 -43.5t-31.5 -47q-49 -41 -109 -41 q-11 0 -25 2t-38.5 11.5t-43 26t-32.5 50t-14 78.5q0 328 227 627q32 42 71.5 83.5t70 70t124.5 114.5h-372q-160 0 -211 -6q-21 -2 -35 -16q-30 -42 -45 -119h-170z" />
<glyph unicode="8" d="M158 332q0 242 295 350q-33 17 -64.5 40t-67 60t-57.5 89.5t-22 111.5q0 89 35.5 157t90 107.5t129.5 64.5t143.5 33.5t143.5 8.5q527 0 527 -316q0 -184 -232 -286q155 -61 235.5 -156.5t80.5 -214.5q0 -67 -19 -123.5t-48 -96.5t-73.5 -72.5t-86.5 -52.5t-97 -34.5 t-94 -21.5t-88.5 -10.5t-70.5 -4t-48 -0.5q-612 0 -612 367zM395 334q0 -61 26 -106.5t64.5 -71t93 -41t102.5 -20.5t103 -5q201 0 287 48t86 141q0 25 -12 48.5t-26.5 38.5t-36 29.5t-30.5 19.5t-20 10l-2 1l-409 180q-226 -90 -226 -272zM446 1096q0 -43 37.5 -69.5 t153.5 -76.5l289 -129q180 69 180 215q0 203 -342 203q-176 0 -247 -35t-71 -108z" />
<glyph unicode="9" d="M158 899q0 109 47 197.5t164 158.5q94 58 188 78.5t223 20.5q313 0 464 -179.5t151 -502.5q0 -166 -56 -301t-156 -223t-235.5 -135.5t-294.5 -47.5q-26 0 -46.5 0.5t-67 6t-82 15.5t-80 31t-74 49.5t-50 74.5t-20.5 104q0 77 47 117t107 40q64 0 109 -42.5t45 -110.5 q0 -37 -15.5 -69t-31.5 -45l-15 -13q63 -33 172 -33q224 0 336 146q29 39 47.5 85t26 103.5t9.5 92.5t3 97q-131 -165 -350 -165q-256 0 -410.5 124t-154.5 326zM479 899q0 -48 1 -73t6 -67t14.5 -64.5t29.5 -51.5t48.5 -44t72 -25.5t99.5 -10.5q133 0 225 86.5t92 235.5 q0 55 -5 98.5t-22 93.5t-47 83.5t-84.5 56t-128.5 22.5q-49 0 -89.5 -7t-70 -17t-52.5 -29t-37.5 -35.5t-25 -44.5t-15.5 -47t-7.5 -53t-3 -52.5t-0.5 -54.5z" />
<glyph unicode=":" horiz-adv-x="892" d="M270 176q0 72 52 124t124 52t124.5 -52t52.5 -124t-52.5 -124t-124.5 -52t-124 52t-52 124zM270 733q0 72 52 124t124 52t124.5 -52t52.5 -124t-52.5 -124t-124.5 -52t-124 52t-52 124z" />
<glyph unicode=";" horiz-adv-x="892" d="M270 176q0 75 49.5 125.5t124.5 50.5q89 0 138 -77t49 -195q0 -82 -23 -160.5t-56 -133.5t-70 -98t-66.5 -64t-42.5 -21q-21 0 -41.5 21t-20.5 40q0 25 27 45q67 55 113.5 133.5t58.5 167.5q-29 -10 -64 -10q-79 0 -127.5 51.5t-48.5 124.5zM270 733q0 72 52 124t124 52 t124.5 -52t52.5 -124t-52.5 -124t-124.5 -52t-124 52t-52 124z" />
<glyph unicode="&#x3c;" horiz-adv-x="1830" d="M197 514q0 42 51 64l1282 612q21 12 39 12q28 0 45.5 -19t17.5 -42q0 -41 -51 -66l-1178 -563l1178 -561q51 -25 51 -66q0 -23 -17.5 -42t-45.5 -19q-16 0 -45 14l-1276 611q-51 23 -51 65z" />
<glyph unicode="=" horiz-adv-x="2377" d="M201 238q0 88 106 88h1764q106 0 106 -88t-119 -88h-1739q-118 0 -118 88zM201 786q0 88 118 88h1739q119 0 119 -88t-106 -88h-1764q-106 0 -106 88z" />
<glyph unicode="&#x3e;" horiz-adv-x="1830" d="M197 -115q0 43 51 66l1177 563l-1177 561q-26 13 -38.5 27.5t-12.5 38.5q0 25 18 43t43 18q18 0 47 -14l1276 -610q51 -22 51 -64q0 -44 -51 -65l-1282 -613q-21 -12 -39 -12q-28 0 -45.5 19t-17.5 42z" />
<glyph unicode="?" horiz-adv-x="1470" d="M201 1171q0 267 510 267q219 0 344 -41q90 -27 152.5 -84t62.5 -144q0 -63 -40.5 -118.5t-121.5 -92.5q-176 -76 -252 -158.5t-76 -187.5v-45q0 -52 -13.5 -65t-57.5 -13h-29q-44 0 -57 12.5t-13 55.5v66q0 237 279 424q25 18 36.5 28t24.5 37t13 62q0 40 -8 64.5 t-33.5 45.5t-78 30t-136.5 9q-156 0 -248 -39l13.5 -13.5t22 -38.5t13.5 -63q0 -69 -44.5 -111t-109.5 -42q-63 0 -108 41t-45 114zM518 176q0 72 52 124t124 52t124 -52t52 -124t-52 -124t-124 -52t-124 52t-52 124z" />
<glyph unicode="@" horiz-adv-x="2377" d="M201 711q0 104 32 204t107.5 196t186.5 167.5t282 115.5t381 44q207 0 376.5 -43t281 -114t187.5 -166.5t109 -196.5t33 -207q0 -62 -12 -124t-40 -123t-68 -107.5t-102 -75.5t-136 -29q-198 0 -279 94q-133 -94 -354 -94q-147 0 -263 39t-186 104.5t-105.5 146 t-35.5 169.5q0 90 36 170.5t106 145.5t185.5 103.5t262.5 38.5q79 0 148.5 -14t112.5 -30.5t84.5 -45t57 -43t39.5 -39.5h78q51 0 63.5 -13.5t12.5 -59.5v-457q0 -100 63 -100q49 0 84 37t50.5 95.5t21.5 108t6 97.5q0 126 -49.5 235.5t-147 196t-257.5 136.5t-365 50 q-169 0 -307.5 -34.5t-231.5 -93t-157 -137.5t-92.5 -166t-28.5 -181q0 -84 23.5 -165t83.5 -163.5t151 -144.5t238 -101t331 -39q404 0 782 115q23 6 58 6h67q21 0 33 -1.5t25.5 -12t13.5 -31.5q0 -24 -20 -37q-22 -13 -95 -31q-424 -122 -864 -122q-195 0 -367 37 t-325 137q-141 92 -223 239t-82 314zM868 711q0 -155 86 -249.5t238 -94.5q113 0 194.5 42t122.5 109v385q-40 66 -121.5 109t-195.5 43q-152 0 -238 -94.5t-86 -249.5z" />
<glyph unicode="A" horiz-adv-x="2281" d="M147 0v137h209l594 1252q12 25 24 39t28.5 20t27 7t33.5 1h156q29 0 46.5 -3t30 -14.5t18 -21t17.5 -33.5l594 -1247h209v-137l-342 8l-371 -8v137h170l-143 299h-737l-142 -299h170v-137l-311 8q-156 0 -281 -8zM776 573h608l-305 639z" />
<glyph unicode="B" horiz-adv-x="2164" d="M205 0v137h217v1131h-217v137h1046q283 0 457 -102t174 -256q0 -113 -108.5 -195.5t-296.5 -116.5q228 -26 357.5 -121t129.5 -227q0 -165 -171.5 -276t-463.5 -111h-1124zM707 137h526q176 0 285.5 68.5t109.5 185.5q0 36 -9.5 71.5t-35.5 75t-66.5 68.5t-108.5 48.5 t-155 19.5h-546v-537zM707 788h456q180 0 291 73.5t111 182.5q0 41 -19 79t-57.5 71.5t-106 53.5t-155.5 20h-520v-480z" />
<glyph unicode="C" horiz-adv-x="2213" d="M201 702q0 113 37 218.5t118 200.5t197.5 165.5t286.5 112t374 41.5q306 0 539 -144l141 121q20 16 28.5 19.5t29.5 3.5q22 0 35 -4.5t18.5 -16t6.5 -21t1 -30.5v-444q0 -46 -12.5 -59t-58.5 -13h-50q-21 0 -31.5 1t-22.5 10t-15 26q-9 41 -17 65.5t-28.5 71.5t-57.5 90 t-90 80q-155 107 -358 107q-315 0 -514 -134q-205 -143 -205 -467q0 -307 189 -453.5t538 -146.5q150 0 275 43t203 126t85 192q3 44 16.5 54.5t55.5 10.5h27q19 0 28.5 -1t21 -6t16.5 -17.5t5 -32.5q0 -105 -55.5 -197.5t-155.5 -161t-251 -108t-332 -39.5 q-209 0 -382 42.5t-289 113.5t-195.5 167t-115.5 200t-36 214z" />
<glyph unicode="D" horiz-adv-x="2330" d="M197 0v137h217v1131h-217v137h1048q259 0 459.5 -89t312 -252t111.5 -374q0 -151 -63.5 -279t-178 -218.5t-279.5 -141.5t-362 -51h-1048zM717 137h446q99 0 183 13.5t144.5 34.5t108.5 54.5t79 66.5t53.5 78t34 80t18 82.5t7.5 76.5t1 69q0 187 -46 290t-134 169 q-161 117 -451 117h-444v-1131z" />
<glyph unicode="E" horiz-adv-x="2002" d="M188 0v137h218v1114h-218v138h1534l80 -422h-170q-12 55 -32.5 98.5t-46 73t-62 51t-71.5 33t-83 18t-88 8.5t-96 2h-428v-463h182q47 0 76.5 2t66 11.5t56.5 26.5t35 50t16 80h170v-477h-170q-1 47 -16 80t-35 50t-56.5 26.5t-66 11.5t-76.5 2h-182v-514h457 q70 0 121 3.5t110 15t101.5 34t83.5 58.5t70 91.5t48 129.5h170l-119 -469h-1579z" />
<glyph unicode="F" horiz-adv-x="1921" d="M188 0v137h218v1114h-218v138h1493l80 -422h-170q-11 55 -31 98.5t-45 73t-60.5 51t-69.5 33t-80.5 18t-85 8.5t-91.5 2h-403v-487h170q48 0 78.5 2.5t64.5 12t53.5 27.5t33 50t14.5 78h170v-477h-170q-1 46 -14.5 78t-33 50t-53.5 27.5t-64.5 12t-78.5 2.5h-170v-490 h270v-137q-102 8 -422 8z" />
<glyph unicode="G" horiz-adv-x="2394" d="M201 702q0 113 37 218.5t118 200.5t197.5 165.5t286.5 112t374 41.5q306 0 539 -144l141 121q20 16 28.5 19.5t29.5 3.5q22 0 35 -4.5t18.5 -16t6.5 -21t1 -30.5v-444q0 -46 -12.5 -59t-58.5 -13h-50q-21 0 -31.5 1t-22.5 10t-15 26q-9 41 -17 65.5t-28.5 71.5t-57.5 90 t-90 80q-155 107 -358 107q-315 0 -514 -134q-205 -143 -205 -464q0 -136 38.5 -241t105.5 -172.5t166.5 -110.5t213.5 -61t254 -18q53 0 98 2t79 6t61 8.5t46 13t33 14.5t22.5 17.5t13.5 19t7 21.5t2.5 22t0.5 24v166h-371v137q104 -8 504 -8l393 8v-137h-207v-344 q0 -21 -1.5 -33t-12 -25.5t-31.5 -13.5q-12 0 -69.5 23t-90.5 40q-41 -33 -101 -54t-139.5 -30t-144 -11.5t-159.5 -2.5q-59 0 -98 1.5t-117.5 6.5t-144.5 19.5t-146 37t-157 62.5t-144 92q-114 90 -185 225.5t-71 292.5z" />
<glyph unicode="H" horiz-adv-x="2361" d="M188 0v137h218v1131h-218v137l377 -8l377 8v-137h-217v-469h911v469h-217v137l377 -8l377 8v-137h-217v-1131h217v-137l-377 8l-377 -8v137h217v525h-911v-525h217v-137l-377 8z" />
<glyph unicode="I" horiz-adv-x="1126" d="M176 0v137h227v1131h-227v137q125 -8 387 -8t387 8v-137h-227v-1131h227v-137q-125 8 -387 8t-387 -8z" />
<glyph unicode="J" horiz-adv-x="1587" d="M135 231q0 87 54.5 134t123.5 47q67 0 121.5 -47.5t54.5 -131.5q0 -33 -12 -64t-20.5 -42.5t-14.5 -17.5q82 -29 187 -29q132 0 194 61t62 170v957h-281v137q102 -8 412 -8l334 8v-137h-162v-961q0 -156 -144 -249t-413 -93q-36 0 -61.5 0.5t-81.5 6t-97 14.5t-92.5 29 t-84.5 47t-56 70.5t-23 98.5z" />
<glyph unicode="K" horiz-adv-x="2363" d="M188 0v137h218v1131h-218v137l377 -8l377 8v-137h-217v-594l909 594h-86v137l350 -8q177 0 265 8v-137h-219l-656 -430l721 -701h195v-137q-141 8 -314 8l-372 -8v137h106l-567 551l-332 -217v-334h217v-137l-377 8z" />
<glyph unicode="L" horiz-adv-x="1837" d="M188 0v137h218v1131h-218v137l385 -8q320 0 422 8v-137h-270v-1131h311q63 0 114 5.5t113 26t107.5 55t84 97.5t54.5 148h170l-80 -469h-1411z" />
<glyph unicode="M" horiz-adv-x="2854" d="M213 0v137h217v1131h-217v137h481q19 0 30 -1t28 -6t31 -18t26 -34l618 -1119l619 1119q12 21 26 34t31 18t28 6t30 1h481v-137h-217v-1131h217v-137l-352 8l-351 -8v137h218v1125h-3l-665 -1203q-12 -21 -26 -34t-30.5 -18t-27 -6t-27.5 -1t-27.5 1t-27 6t-30 18 t-25.5 34l-650 1174h-2v-1096h218v-137l-312 8z" />
<glyph unicode="N" horiz-adv-x="2361" d="M188 0v137h218v1131h-218v137h482q30 0 43 -3.5t32 -21.5l1024 -979v867h-217v137l312 -8l309 8v-137h-217v-1190q0 -49 -15 -63.5t-63 -14.5h-31q-34 0 -44.5 4t-33.5 25l-1177 1124v-1016h217v-137l-311 8z" />
<glyph unicode="O" horiz-adv-x="2297" d="M201 692q0 114 33.5 220t107.5 202.5t182 168.5t269 114.5t356 42.5t355.5 -42.5t268.5 -114t182.5 -168t108 -203t33.5 -220.5q0 -110 -33.5 -213t-107.5 -197.5t-182 -164t-269 -111t-356 -41.5t-355.5 41t-268.5 111t-182.5 164t-108 197t-33.5 214zM553 727 q0 -107 18.5 -198t62 -172.5t110.5 -138t170 -89.5t235 -33q155 0 270.5 45t186 129.5t105 198.5t34.5 258q0 303 -160 444q-161 142 -436 142q-284 0 -440 -144q-156 -149 -156 -442z" />
<glyph unicode="P" horiz-adv-x="2082" d="M197 0v137h217v1131h-217v137h1011q303 0 488.5 -118t185.5 -302q0 -124 -91.5 -218t-238 -141.5t-319.5 -47.5h-500v-441h217v-137l-377 8zM717 702h432q74 0 132.5 8.5t98 22.5t68 37t44 45t24.5 53.5t11.5 57t2.5 59.5q0 42 -4 71.5t-16 65t-38 59.5t-66 45t-105 31.5 t-150 10.5h-434v-566z" />
<glyph unicode="Q" horiz-adv-x="2297" d="M201 692q0 114 33.5 220t107.5 202.5t182 168.5t269 114.5t356 42.5t355.5 -42.5t268.5 -114t182.5 -168t108 -203t33.5 -220.5q0 -221 -129.5 -397.5t-368.5 -259.5q31 -29 58.5 -46t56.5 -24t48 -8.5t55 -1.5q87 0 131.5 8.5t52 17t10.5 25.5q5 24 20.5 34.5t30.5 10.5 q52 0 52 -63q0 -66 -25 -133.5t-69 -124t-113 -92t-148 -35.5q-31 0 -58 4.5t-51.5 15.5t-44.5 22t-40 32.5t-34.5 37t-32 45t-28 48.5t-27.5 55.5t-25.5 57t-26.5 61.5q-129 -17 -242 -17q-195 0 -355.5 41t-268.5 111t-182.5 164t-108 197t-33.5 214zM537 692 q0 -442 350 -561q-2 8 -2 25q0 87 76.5 134.5t183.5 47.5q53 0 98 -13t88.5 -43t70.5 -53.5t75 -70.5q284 131 284 534q0 304 -147 453q-168 168 -465 168q-303 0 -475 -178q-137 -146 -137 -443zM999 156q0 -64 150 -64q89 0 176 17q-66 114 -180 114q-27 0 -57 -4.5 t-59.5 -21t-29.5 -41.5z" />
<glyph unicode="R" horiz-adv-x="2258" d="M197 0v137h217v1131h-217v137h905q219 0 391 -50.5t266 -139t94 -199.5q0 -102 -87 -186.5t-263 -133.5q50 -22 87.5 -52.5t58.5 -56.5t35.5 -59.5t19 -52t8.5 -43.5l33 -168q16 -84 61 -134t119 -50q41 0 77.5 29.5t43.5 103.5q1 19 8.5 30.5t21.5 16t24 5.5t30 1 q21 0 32 -1t25.5 -6t21.5 -18t7 -34q0 -11 -2.5 -26.5t-10.5 -39.5t-21 -46.5t-37.5 -47t-56 -42t-80.5 -29t-107 -11.5q-235 0 -349 51q-30 14 -53.5 29t-40 34.5t-28.5 35t-19.5 41.5t-11.5 42.5t-5.5 49t-2 50.5t-0.5 58q0 103 -12 145t-66 79q-97 65 -254 65h-342v-508 h217v-137l-369 8zM717 760h370q120 0 202 17t128 51.5t65 79t19 106.5q0 87 -35.5 140.5t-128 83.5t-250.5 30h-370v-508z" />
<glyph unicode="S" horiz-adv-x="1718" d="M201 37v356q0 47 13 60.5t60 13.5h25q20 0 31 -1t25 -10.5t16 -27.5q1 -26 2.5 -42t8 -45.5t17 -49t31 -47t47.5 -45.5t70 -38t96 -32t126.5 -19.5t160.5 -7.5q76 0 138 11.5t101 29t68 42t43 45.5t22 45.5t9.5 37t1.5 23.5q0 48 -25.5 88.5t-67 67.5t-86 44t-90.5 25 l-342 57q-50 8 -87.5 16t-93 25t-106.5 46t-93 67q-121 112 -121 256q0 57 17.5 112t60.5 110.5t107 96.5t165 67t227 26q277 0 449 -109l90 86q16 16 26.5 19.5t30.5 3.5q22 0 35 -4.5t19 -16t7 -21.5t1 -30v-358q0 -46 -13 -59t-59 -13h-27q-43 0 -55 10t-18 45 q-64 322 -488 322q-97 0 -171 -19t-116 -50t-62.5 -67t-20.5 -75q0 -32 13.5 -60t32 -47t50 -36.5t54 -26.5t59 -18.5t49.5 -12.5t41 -8l292 -49q72 -12 110.5 -21t98.5 -29.5t111.5 -55t101.5 -85.5q99 -114 99 -252q0 -33 -6 -68t-23 -79t-44 -83.5t-73.5 -78t-106 -66.5 t-146.5 -45.5t-191 -17.5q-345 0 -525 101q-24 -24 -40 -38.5t-21 -19.5q-34 -31 -45.5 -37t-34.5 -6q-22 0 -35 4.5t-18.5 16t-6.5 21t-1 30.5z" />
<glyph unicode="T" horiz-adv-x="2134" d="M141 948l56 422h1740l56 -422h-170q-12 86 -35.5 141t-67 87t-101.5 44.5t-146 12.5h-246v-1096h305v-137q-98 8 -465 8t-465 -8v137h305v1096h-245q-88 0 -146 -12.5t-101.5 -44.5t-67.5 -87t-36 -141h-170z" />
<glyph unicode="U" horiz-adv-x="2320" d="M188 1268v137l377 -8l377 8v-137h-217v-795q0 -65 12 -117.5t44 -101t84 -81t135 -52t194 -19.5t201.5 19t166 60.5t118 117.5t42.5 180v789h-217v137q136 -8 314 -8q69 0 313 8v-137h-217v-795q0 -74 -23 -143.5t-77.5 -137t-136 -117t-208 -80t-282.5 -30.5 q-197 0 -351 42.5t-246 115t-138.5 162t-46.5 190.5v793h-218z" />
<glyph unicode="V" horiz-adv-x="2281" d="M109 1268v137l335 -8l371 8v-137h-166l553 -1071l553 1071h-164v137l310 -8q155 0 272 8v-137h-201l-641 -1241q-12 -22 -24.5 -35.5t-27.5 -18.5t-26.5 -6.5t-31.5 -1.5h-160q-30 0 -45 3t-34 18t-36 47l-637 1235h-200z" />
<glyph unicode="W" horiz-adv-x="3106" d="M102 1268v137l322 -8l367 8v-137h-177l443 -1037l403 951l-37 86h-182v137l322 -8l364 8v-137h-174l442 -1037l441 1037h-197v137l311 -8q174 0 254 8v-137h-184l-526 -1235q-8 -20 -13.5 -29.5t-17 -20t-30 -14.5t-46.5 -4h-129q-19 0 -30 1.5t-26.5 6.5t-27.5 18.5 t-22 35.5l-400 938l-397 -938q-10 -22 -22 -35.5t-27.5 -18.5t-26.5 -6.5t-30 -1.5h-129q-21 0 -32 1t-27 7t-28 21t-22 39l-524 1235h-185z" />
<glyph unicode="X" horiz-adv-x="2281" d="M145 0v137h250l559 574l-540 557h-228v137l351 -8q272 0 387 8v-137h-113l342 -353l342 353h-137v137l346 -8l307 8v-137h-248l-477 -490l625 -641h225v-137l-350 8q-272 0 -387 -8v137h112l-424 436l-423 -436h135v-137l-344 8q-138 0 -310 -8z" />
<glyph unicode="Y" horiz-adv-x="2281" d="M109 1268v137l360 -8q280 0 395 8v-137h-119l472 -506l469 506h-117v137l319 -8q160 0 285 8v-137h-225l-656 -705v-426h215v-137l-366 8l-369 -8v137h217v424l-655 707h-225z" />
<glyph unicode="Z" horiz-adv-x="1882" d="M201 76q0 32 3.5 42t22.5 29l1024 1121h-354q-30 0 -53 -0.5t-74.5 -6t-91 -15.5t-89.5 -31.5t-84 -50.5t-60.5 -76t-32.5 -105h-170l32 422h1330q22 0 33 -1.5t23 -8t16.5 -21.5t4.5 -41q0 -29 -3.5 -38.5t-22.5 -28.5l-1020 -1116h383q48 0 82 1.5t88.5 8.5t94 20 t85.5 38.5t76.5 60.5t54.5 89.5t31 123.5h170l-47 -492h-1374q-47 0 -62.5 14t-15.5 62z" />
<glyph unicode="[" horiz-adv-x="899" d="M356 -512v2048h443v-176h-267v-1696h267v-176h-443z" />
<glyph unicode="\" horiz-adv-x="1177" d="M131 1473q0 29 19 46t43 17q20 0 33.5 -9t19 -19t14.5 -33l772 -1883q12 -32 12 -41q0 -29 -18.5 -46t-42.5 -17q-15 0 -26.5 4.5t-19.5 14.5t-12 18.5t-10 23.5l-772 1883q-12 32 -12 41z" />
<glyph unicode="]" horiz-adv-x="899" d="M100 -336h267v1696h-267v176h443v-2048h-443v176z" />
<glyph unicode="^" horiz-adv-x="1138" d="M-10 1196l579 328l580 -328l-25 -45l-557 252l-555 -252z" />
<glyph unicode="_" horiz-adv-x="2281" d="M0 -170h2281v-172h-2281v172z" />
<glyph unicode="`" d="M406 1286q0 58 39 103t96 45q37 0 82 -27l340 -215l-72 -156l-377 123q-108 33 -108 127z" />
<glyph unicode="a" horiz-adv-x="1511" d="M119 246q0 108 101 170t298 98q70 13 151 21.5t135 10t102.5 2.5t51.5 1v39q0 231 -290 231q-96 0 -172 -16q28 -39 28 -92q0 -66 -43 -110t-110 -44q-64 0 -109 42.5t-45 113.5q0 46 18.5 82t44 58.5t69.5 39t78.5 24.5t87 12t79.5 4.5t72 0.5q126 0 225.5 -20 t162 -52.5t103.5 -77.5t57.5 -91.5t16.5 -98.5v-436q45 -21 145 -21h13q22 0 31.5 -1t22.5 -7t18 -20.5t5 -38.5q0 -51 -21.5 -60.5t-123.5 -9.5q-44 0 -66 0.5t-59.5 2.5t-58 6.5t-47.5 13.5t-41 22t-26 32.5t-15 45.5q-47 -68 -154 -103.5t-260 -35.5q-29 0 -52.5 0.5 t-76 5.5t-93 14.5t-91 29t-83.5 46t-56 69.5t-23 97zM391 248q0 -69 73 -109.5t185 -40.5q121 0 205 33q30 11 50.5 25.5t31 26.5t16 30t6 28.5t0.5 30.5v179q-26 -1 -40.5 -2t-55.5 -3.5t-70 -6t-75 -9t-80 -14t-74 -19.5t-68.5 -26t-53.5 -32.5t-37.5 -41t-12.5 -49.5z " />
<glyph unicode="b" horiz-adv-x="1718" d="M172 1268v137l403 16v-583q168 88 400 88q126 0 230 -27.5t173.5 -73t117 -107t68.5 -127t21 -134.5q0 -96 -41 -180.5t-119 -150.5t-202.5 -104t-280.5 -38q-224 0 -395 122l-58 -106h-170v1188q0 58 -22.5 69t-124.5 11zM592 264q29 -40 65.5 -73.5t105.5 -63 t150 -29.5q75 0 135 15t97.5 36.5t64.5 56.5t39.5 63.5t19.5 70.5t8 63t1 56q0 34 -1 55t-7 62.5t-18 68.5t-37 61.5t-59.5 55t-89.5 35t-124 14.5q-188 0 -311 -100q-29 -23 -34 -33t-5 -41v-373z" />
<glyph unicode="c" horiz-adv-x="1388" d="M133 455q0 37 7 76t26.5 87t49.5 91t82 85t119 72.5t164.5 49t213.5 18.5q43 0 69.5 -0.5t78.5 -4.5t86.5 -12t77.5 -24.5t69 -39t44.5 -58.5t18.5 -82q0 -70 -44.5 -113t-109.5 -43q-66 0 -109.5 44t-43.5 110q0 52 22 86q-50 10 -155 10q-179 0 -269 -79.5t-90 -266.5 q0 -185 113 -268q108 -82 289 -82q62 0 109 11.5t76 32t45.5 39.5t29.5 44q13 24 25 28t59 4q23 0 34 -1t25.5 -4.5t20.5 -13.5t6 -26q0 -15 -16.5 -46.5t-62 -75t-106.5 -70.5q-117 -49 -309 -49q-139 0 -252 29t-184.5 76t-120 110t-68.5 126.5t-20 129.5z" />
<glyph unicode="d" horiz-adv-x="1718" d="M133 453q0 94 39.5 177.5t116 150.5t201.5 106t284 39q209 0 369 -84v346q0 58 -22.5 69t-125.5 11v137l404 16v-1204q0 -58 22.5 -69t124.5 -11v-137l-420 -16v100q-165 -100 -381 -100q-156 0 -277.5 41.5t-192.5 110t-106.5 149.5t-35.5 168zM440 451q0 -34 1 -55 t7 -62t18 -68.5t36.5 -62t59 -55.5t89 -35.5t123.5 -14.5q218 0 352 172v371q0 31 -5.5 41.5t-37.5 36.5q-113 92 -278 92q-59 0 -108.5 -9t-85 -23t-63.5 -37t-45.5 -44t-30.5 -51.5t-19 -52t-9 -53.5t-3.5 -48t-0.5 -42z" />
<glyph unicode="e" horiz-adv-x="1417" d="M117 463q0 68 21 133t70 127t120.5 108.5t180 74.5t241.5 28q147 0 246 -32.5t173 -96.5q62 -56 96.5 -149t34.5 -187q0 -24 -5.5 -38t-18.5 -20t-23 -7t-30 -1h-797q27 -292 414 -292q225 0 295 137q12 20 25.5 24t47.5 4h15q12 0 19.5 -0.5t20 -3t19.5 -7.5t12.5 -15 t5.5 -25q0 -33 -50.5 -94.5t-141.5 -97.5q-123 -49 -315 -49q-145 0 -262.5 29t-193 76.5t-126.5 111t-72.5 129t-21.5 133.5zM426 508h668q-3 47 -12 85.5t-32.5 82.5t-59 73.5t-97 49.5t-141.5 20q-66 0 -118.5 -14t-85.5 -34t-57.5 -52t-36 -57t-18.5 -61t-8 -52t-2 -41z " />
<glyph unicode="f" horiz-adv-x="974" d="M150 772v137h204v187q0 112 72.5 191t186.5 115t257 36q137 0 210 -60t73 -143q0 -70 -45.5 -111t-106.5 -41q-56 0 -102.5 40t-46.5 112q0 39 18 76l2 6q1 6 -24 6q-110 0 -184 -57q-70 -57 -70 -174v-183h326v-137h-310v-635h185v-137q-144 8 -306 8q-157 0 -282 -8 v137h147v635h-204z" />
<glyph unicode="g" d="M117 -147q0 129 207 182q-76 83 -76 194q0 97 59 170q-18 16 -26.5 24t-28 31t-29.5 42.5t-19 51t-9 64.5q0 40 13.5 80t49.5 83.5t90 76t143.5 53.5t202.5 21q199 0 326 -66q131 84 272 84q85 0 135 -49t50 -111q0 -58 -38 -89t-81 -31q-49 0 -85 33t-36 87q0 20 8 43 q-71 -8 -135 -30q12 -11 28 -30.5t35 -64.5t19 -92q0 -40 -13.5 -80t-49.5 -83t-90.5 -75.5t-144 -53.5t-202.5 -21q-183 0 -299 53q-8 -16 -8 -41q0 -57 47 -94q29 -21 55 -25t109 -4h119q140 0 204 -1.5t143.5 -12t147.5 -33.5q71 -25 120 -63.5t70 -81.5t28.5 -74 t7.5 -61q0 -77 -59 -133t-159.5 -85.5t-210 -43t-231.5 -13.5q-323 0 -491 75t-168 194zM332 -145q0 -28 26 -54.5t77 -49.5t139.5 -37.5t201.5 -14.5t201.5 14.5t140 37.5t77.5 50t26 54q0 23 -21 40.5t-66.5 27.5t-87.5 16t-115 8.5t-115.5 3t-121.5 0.5h-116 q-28 0 -45.5 -0.5t-51 -3t-56 -8.5t-46 -16t-35.5 -27.5t-12 -40.5zM451 610q0 -33 3.5 -56.5t17.5 -52t39 -46.5t71.5 -30.5t111.5 -12.5t112 13t71.5 31t38.5 47.5t17 52.5t3 56t-3.5 56.5t-18 52.5t-39.5 47t-71.5 30.5t-111.5 12.5q-55 0 -96.5 -8t-67 -24.5t-42 -34 t-23.5 -43t-9.5 -45t-2.5 -46.5z" />
<glyph unicode="h" horiz-adv-x="1718" d="M199 0v137h147v1051q0 58 -22.5 69t-124.5 11v137l403 16v-688q153 193 442 193q39 0 70.5 -2t74.5 -9t76 -20t68 -37t57.5 -57.5t37 -83.5t14.5 -113v-467h147v-137q-120 8 -282 8l-285 -8v137h147v473q0 111 -37.5 156t-134.5 45q-42 0 -88.5 -8.5t-99.5 -31 t-94.5 -56.5t-69 -91t-27.5 -128v-359h148v-137q-120 8 -283 8z" />
<glyph unicode="i" horiz-adv-x="892" d="M207 0v137h147v555q0 58 -21 69t-120 11v137l397 17v-789h133v-137q-117 8 -264 8q-152 0 -272 -8zM270 1237q0 69 51.5 119.5t124.5 50.5q72 0 124.5 -50t52.5 -122q0 -69 -52 -119.5t-125 -50.5q-72 0 -124 50t-52 122z" />
<glyph unicode="j" horiz-adv-x="974" d="M-82 -197q0 66 43.5 110t110.5 44q66 0 109.5 -43.5t43.5 -110.5q0 -44 -22 -84l-2 -6q0 -5 31.5 -8.5t46.5 -3.5q77 0 133.5 60t56.5 173v756q0 27 -1.5 38.5t-11.5 22.5t-32 15q-31 6 -117 6v137l418 17v-998q0 -70 -27 -128t-72 -97t-104.5 -66t-123.5 -39t-130 -12 q-157 0 -253.5 56t-96.5 161zM373 1237q0 69 51.5 119.5t124.5 50.5q72 0 124 -50t52 -122q0 -69 -51.5 -119.5t-124.5 -50.5q-72 0 -124 50t-52 122z" />
<glyph unicode="k" horiz-adv-x="1636" d="M172 0v137h147v1051q0 58 -22.5 69t-124.5 11v137l403 16v-919l418 270h-30v137l301 -8q117 0 221 8v-137h-178l-355 -229l441 -406h157v-137q-90 8 -237 8q-149 0 -277 -8v137h31l-307 283l-203 -131v-152h148v-137q-117 8 -267 8q-127 0 -266 -8z" />
<glyph unicode="l" horiz-adv-x="892" d="M207 0v137h147v1051q0 58 -22.5 69t-124.5 11v137l403 16v-1284h148v-137q-109 8 -277 8q-151 0 -274 -8z" />
<glyph unicode="m" horiz-adv-x="2543" d="M199 0v137h147v555q0 58 -22.5 69t-124.5 11v137l385 17v-219q22 34 54 66t86.5 69.5t138.5 60.5t184 23q158 0 248 -44t132 -151q157 195 445 195q39 0 71.5 -2t75 -9.5t75.5 -21t67.5 -37.5t56.5 -57t36.5 -83t14.5 -112v-467h148v-137q-120 8 -283 8l-285 -8v137h148 v471q0 115 -38 159t-136 44q-41 0 -87 -8.5t-99 -31t-95 -56.5t-70 -91t-28 -128v-359h147v-137q-120 8 -282 8l-285 -8v137h147v471q0 115 -38 159t-136 44q-41 0 -87 -8.5t-99 -31t-95 -56.5t-70 -91t-28 -128v-359h148v-137q-120 8 -283 8z" />
<glyph unicode="n" horiz-adv-x="1718" d="M199 0v137h147v555q0 58 -22.5 69t-124.5 11v137l385 17v-219q18 28 41 54t63.5 57.5t88.5 54t118 38t149 15.5q39 0 70.5 -2t74.5 -9t76 -20t68 -37t57.5 -57.5t37 -83.5t14.5 -113v-467h147v-137q-120 8 -282 8l-285 -8v137h147v473q0 111 -37.5 156t-134.5 45 q-42 0 -88.5 -8.5t-99.5 -31t-94.5 -56.5t-69 -91t-27.5 -128v-359h148v-137q-120 8 -283 8z" />
<glyph unicode="o" d="M117 444q0 70 21.5 137.5t71.5 132t124 113t188 78t254 29.5q139 0 252 -29t187.5 -77t125.5 -112.5t73 -132.5t22 -139q0 -68 -22 -131.5t-72.5 -124t-125 -105.5t-188 -72t-252.5 -27t-252 27t-187.5 72t-125 105.5t-72.5 124t-22 131.5zM424 469q0 -68 2.5 -104 t20.5 -92.5t53 -86t105 -52.5t171 -23t171 23t105 52.5t53 86t20.5 92.5t2.5 104q0 46 -1 70.5t-7.5 68t-19 67.5t-38 55.5t-62.5 48t-94 28.5t-130 12t-130 -12t-94 -28t-62.5 -47.5t-38 -55.5t-19 -67.5t-7.5 -68t-1 -71.5z" />
<glyph unicode="p" horiz-adv-x="1718" d="M172 -260h147v962q0 21 -1 29.5t-5.5 19t-17 13.5t-33 5.5t-55.5 2.5h-35v137l403 17v-90q176 90 416 90q124 0 225.5 -27.5t169 -73.5t113.5 -107.5t66 -126.5t20 -134q0 -95 -41 -179.5t-119 -150.5t-202.5 -104.5t-280.5 -38.5q-200 0 -350 92v-336h147v-137l-284 8 l-283 -8v137zM592 262q123 -164 319 -164q164 0 265.5 95.5t101.5 261.5q0 153 -88.5 248.5t-251.5 95.5q-85 0 -181 -28.5t-165 -100.5v-408z" />
<glyph unicode="q" horiz-adv-x="1636" d="M133 453q0 95 40 179t116 150.5t199 105t278 38.5q249 0 416 -150l63 150h154v-1186h147v-137l-284 8l-283 -8v137h147v340q-180 -96 -383 -96q-152 0 -272 40.5t-192 108t-109 149.5t-37 171zM440 453q0 -159 90 -257t248 -98q107 0 207.5 49.5t157.5 143.5v227 q0 45 -24.5 93.5t-66.5 90.5t-107.5 69.5t-139.5 27.5q-158 0 -261.5 -90t-103.5 -256z" />
<glyph unicode="r" horiz-adv-x="1273" d="M172 0v137h147v555q0 58 -22.5 69t-124.5 11v137l369 17v-248h2q47 103 139 175.5t217 72.5q108 0 183 -54t75 -141q0 -66 -42.5 -107.5t-106.5 -41.5t-107 42t-43 107q0 45 21 80q-131 -11 -217.5 -127t-86.5 -281v-266h185v-137q-144 8 -305 8q-158 0 -283 -8z" />
<glyph unicode="s" horiz-adv-x="1239" d="M133 55v201q0 47 13.5 60.5t60.5 13.5h24q38 0 50 -7t24 -36q39 -99 115 -144t213 -45q22 0 41.5 1t60 4.5t72 12.5t64 23t51 39t18.5 58q0 37 -19.5 60.5t-78.5 40.5t-105 25t-160 23q-3 1 -5 1t-4.5 0.5t-4.5 0.5q-41 6 -56.5 8.5t-59 10.5t-65.5 14.5t-61 19.5 t-60.5 26.5t-49.5 34t-42.5 43t-25 53t-10.5 65.5q0 58 35.5 119.5t120.5 101.5q117 51 325 51q172 0 260 -31q69 31 95 31q22 0 35 -4.5t18.5 -16t6.5 -21t1 -30.5v-141q0 -46 -13 -59t-59 -13h-26q-40 0 -54.5 9t-17.5 44q-5 42 -23.5 67.5t-76 43.5t-158.5 18 q-87 0 -149 -9.5t-94 -26.5t-46 -35.5t-14 -40.5q0 -14 5 -26t17 -21.5t23 -16.5t33.5 -13.5t38 -11t45.5 -9.5t47.5 -7.5l52.5 -7.5q195 -26 261 -41t139 -55q57 -30 101 -86t44 -137q0 -49 -14 -90t-36 -70.5t-56 -53t-65.5 -38t-73.5 -25t-71.5 -15.5t-67.5 -7.5 t-54.5 -3t-38.5 -0.5q-190 0 -305 59q-59 -34 -62 -35q-29 -18 -38.5 -21t-28.5 -3q-42 0 -52 16t-10 55z" />
<glyph unicode="t" horiz-adv-x="1222" d="M90 772v115q100 3 175 63.5t111 151t38 198.5h170v-391h389v-137h-389v-524q0 -23 1 -36t7.5 -35t19 -34.5t38.5 -22t63 -9.5q139 0 139 141v90h170v-98q0 -60 -22.5 -106.5t-58.5 -74.5t-84 -46.5t-94 -25.5t-95 -7q-47 0 -89 4.5t-93.5 20.5t-88 42.5t-61.5 75.5 t-25 115v530h-221z" />
<glyph unicode="u" horiz-adv-x="1718" d="M199 772v137l419 17v-697q0 -29 1 -41.5t7 -31.5t19 -27t36.5 -16.5t60 -11.5t89.5 -3q47 0 89 5t89.5 20t81 39t56 65.5t22.5 96.5v368q0 58 -22.5 69t-124.5 11v137l420 17v-709q0 -58 22.5 -69t124.5 -11v-137l-403 -16v133q-133 -133 -398 -133q-57 0 -101 3t-99 11 t-95 26t-75 45t-53.5 71.5t-18.5 101.5v450q0 58 -22.5 69t-124.5 11z" />
<glyph unicode="v" horiz-adv-x="1636" d="M109 772v137q106 -8 256 -8l278 8v-137h-96l319 -610l320 610h-96v137q96 -8 231 -8q114 0 207 8v-137h-150l-383 -729q-11 -21 -23 -34t-27.5 -18t-26.5 -6t-33 -1h-133q-52 0 -73 13t-40 50l-381 725h-149z" />
<glyph unicode="w" horiz-adv-x="2213" d="M102 772v137q104 -8 246 -8l275 8v-137h-107l246 -582l248 582h-127v137q91 -8 217 -8q139 0 248 8v-137h-107l275 -647l276 647h-123v137q107 -8 242 -8q114 0 200 8v-137h-135l-307 -725q-10 -22 -21.5 -36t-27.5 -19.5t-26.5 -6.5t-30.5 -1h-129q-20 0 -30.5 1 t-26.5 6.5t-28 18.5t-22 35l-221 520l-219 -520q-10 -22 -22 -35t-28 -18.5t-26.5 -6.5t-30.5 -1h-129q-20 0 -30.5 1t-26.5 6.5t-27.5 19.5t-21.5 36l-307 725h-136z" />
<glyph unicode="x" horiz-adv-x="1636" d="M119 0v137h190l361 322l-355 313h-180v137q94 -8 244 -8t270 8v-137q-14 0 -24 -2l198 -176l199 178h-33v137q112 -8 252 -8q141 0 227 8v-137h-190l-328 -291l387 -344h181v-137q-94 8 -244 8t-270 -8v137q14 0 24 2l-231 205l-232 -207h33v-137q-112 8 -252 8 q-141 0 -227 -8z" />
<glyph unicode="y" horiz-adv-x="1636" d="M92 -193q0 67 43 106.5t103 39.5t102.5 -39t42.5 -107q0 -54 -29 -92l-6 -10q17 -4 29 -4q68 0 123.5 15t89 33.5t62.5 51t41 52t28 51.5q49 90 49 96q0 5 -12 25l-484 747h-155v137q115 -8 260 -8q152 0 283 8v-137h-82l331 -514l273 514h-97v137q99 -8 232 -8 q97 0 207 8v-137h-150l-489 -917q-42 -79 -110 -135.5t-143 -83.5t-138.5 -38.5t-122.5 -11.5q-124 0 -202.5 64.5t-78.5 156.5z" />
<glyph unicode="z" horiz-adv-x="1388" d="M117 68q0 28 4 36.5t22 26.5l691 664h-187q-58 0 -96.5 -3t-80.5 -15t-68 -33t-46.5 -59.5t-27.5 -92.5h-170l32 317h955q20 0 30 -1t23.5 -6.5t19 -19t5.5 -36.5q0 -25 -4.5 -34.5t-22.5 -25.5l-686 -659h201q62 0 103.5 4t87.5 17.5t75 38.5t52 70t32 108h170l-47 -365 h-989q-21 0 -31 1t-23 7t-18.5 21t-5.5 39z" />
<glyph unicode="{" horiz-adv-x="1177" d="M160 512q0 17 6 25t13 9.5t26 2.5q127 6 203 76q47 41 57 81.5t10 147.5v422q2 119 130.5 189.5t346.5 70.5q38 0 51 -5.5t13 -31.5q0 -17 -6 -25t-13 -9.5t-26 -2.5q-105 -6 -189 -57q-37 -27 -56 -60.5t-21.5 -52.5t-2.5 -51v-430q0 -28 -0.5 -43t-5 -44.5t-13 -48.5 t-26.5 -46t-43 -45.5t-64.5 -38t-90.5 -33.5q122 -33 181.5 -99t61.5 -139v-485q0 -49 7 -72q21 -63 86.5 -105.5t185.5 -49.5q19 -2 27 -9.5t8 -27.5q0 -26 -13 -31.5t-51 -5.5q-35 0 -70 2t-84.5 9t-91.5 18.5t-86 33.5t-75 51t-50.5 73t-19.5 98v430q0 80 -4 96 q-16 66 -83 117.5t-193 58.5q-19 2 -27 9.5t-8 27.5z" />
<glyph unicode="|" horiz-adv-x="653" d="M264 -422v1868q0 17 1.5 28t6.5 27.5t19.5 25.5t36.5 9q21 0 35 -9t19 -26t6 -28t1 -27v-1868q0 -17 -1 -28t-6.5 -27.5t-19.5 -25.5t-36 -9q-62 0 -62 90z" />
<glyph unicode="}" horiz-adv-x="1177" d="M160 -475q0 17 6 25t13 9.5t26 2.5q116 6 194 61q35 27 53 58.5t20.5 50.5t2.5 51v430q0 39 1.5 62t14.5 63.5t36.5 68t72.5 57t119 48.5q-124 34 -183 99.5t-61 138.5v485q0 52 -6 72q-20 65 -88 107t-186 48q-19 2 -27 9.5t-8 27.5q0 26 13 31.5t50 5.5q41 0 80 -2.5 t88 -10t91 -20t84 -34.5t71 -51t47 -72t18 -95v-430q0 -81 7 -100q25 -82 97 -124.5t175 -47.5q19 -2 27 -9.5t8 -27.5q0 -17 -6 -25t-13 -9.5t-26 -2.5q-72 -4 -123.5 -27t-75.5 -47q-49 -45 -59.5 -84t-10.5 -147v-422q-2 -116 -128 -188t-351 -72q-37 0 -50 5.5t-13 31.5 z" />
<glyph unicode="~" horiz-adv-x="1138" d="M0 430l111 90q45 37 116 72q83 37 150 37q38 0 77.5 -11.5t65 -24t62.5 -34.5q49 -28 72 -39.5t63 -24t78 -12.5q139 0 313 146l29 -35l-111 -90q-44 -36 -117 -72q-83 -37 -149 -37q-38 0 -77.5 11.5t-65 24t-62.5 34.5q-49 28 -72 39.5t-63 24t-78 12.5 q-139 0 -313 -146z" />
<glyph unicode="&#xa0;" />
<glyph unicode="&#xa1;" horiz-adv-x="972" d="M311 -268q0 26 4 57l84 680q6 44 19.5 55t54.5 11h29q41 0 54 -11t19 -55l84 -680q5 -39 5 -57q0 -72 -53.5 -118t-123.5 -46q-69 0 -122.5 46t-53.5 118zM311 848q0 72 52 124t124 52t124.5 -52t52.5 -124t-52.5 -124t-124.5 -52t-124 52t-52 124z" />
<glyph unicode="&#xa2;" horiz-adv-x="1388" d="M133 455q0 50 12 102t49.5 117t96.5 116t164 90.5t241 49.5v114q0 29 20 48.5t48 19.5t47.5 -19.5t19.5 -48.5v-110q39 -1 70.5 -2.5t75.5 -7t78 -14.5t70 -25.5t60 -39t39 -56.5t15 -76q0 -70 -44.5 -113t-109.5 -43q-66 0 -109.5 44t-43.5 110q0 52 22 86 q-33 7 -123 10v-696h11q62 0 109 11.5t76 32t45.5 39.5t29.5 44q13 24 25 28t59 4q23 0 34 -1t25.5 -4.5t20.5 -13.5t6 -26q0 -15 -16.5 -46.5t-62 -75t-106.5 -70.5q-106 -45 -256 -49v-119q0 -28 -19.5 -48t-47.5 -20t-48 20t-20 48v121q-121 8 -219 41t-161 79.5 t-105.5 106.5t-60 120t-17.5 122zM440 461q0 -185 113 -268q58 -47 143 -66v672q-128 -19 -192 -99t-64 -239z" />
<glyph unicode="&#xa3;" horiz-adv-x="2281" d="M141 193q0 57 29.5 99t74.5 65.5t113 37.5t129.5 18.5t139.5 4.5q110 0 239 -33q-12 31 -30 66t-32.5 59.5t-39.5 64.5t-37 60h-367v135h299q-28 70 -28 139q0 113 56 208t149 157t212.5 96.5t247.5 34.5q118 0 227 -27.5t196 -78.5t139.5 -132.5t52.5 -181.5 q0 -63 -45 -108.5t-109 -45.5q-63 0 -108 45.5t-45 108.5q0 44 21.5 80t57.5 55q-57 58 -160 85.5t-227 27.5q-103 0 -192 -40t-144 -115t-55 -169q0 -59 25 -139h571v-135h-510q15 -28 45.5 -82.5t48.5 -88.5t38.5 -83t29.5 -92q86 -32 129 -46.5t116.5 -36.5t136.5 -31 t126 -9q50 0 88 2.5t81 10.5t71 22.5t46.5 40.5t18.5 61h172q0 -153 -110.5 -259.5t-266.5 -106.5q-40 0 -82.5 5t-77 10.5t-81.5 19.5t-74.5 22t-80 28.5t-73 29t-78.5 32.5t-75 31q-15 -27 -39.5 -49t-60.5 -37.5t-70 -27t-86.5 -18t-89.5 -10.5t-100 -5.5t-98 -2 t-101 -0.5q-91 0 -169 23.5t-131 77t-53 127.5zM313 193q0 -13 7.5 -23t22.5 -16t30 -9.5t39 -5t40 -2t42 -0.5q79 0 122.5 1.5t107 7.5t102 21.5t55.5 41.5q-132 37 -254 37q-46 0 -71 -0.5t-68.5 -1.5t-68.5 -4.5t-52.5 -9t-40.5 -15t-13 -22.5z" />
<glyph unicode="&#xa4;" horiz-adv-x="2377" d="M489 -186q-61 61 17 139l164 164q-133 176 -133 395q0 215 133 395l-164 164q-78 78 -17 141q64 62 142 -16l164 -164q177 131 395 131q220 0 393 -133l164 164q79 78 141 16t-16 -139l-164 -164q133 -176 133 -395q0 -220 -133 -393l166 -166q78 -78 14 -139 q-61 -62 -139 16l-166 164q-173 -133 -393 -133q-222 0 -395 133l-164 -164q-79 -79 -142 -16zM713 512q0 -97 37.5 -184.5t101.5 -151.5t152.5 -101.5t185.5 -37.5q196 0 335.5 139.5t139.5 335.5t-139.5 335.5t-335.5 139.5q-97 0 -185.5 -37.5t-152.5 -101.5 t-101.5 -151.5t-37.5 -184.5z" />
<glyph unicode="&#xa5;" horiz-adv-x="2281" d="M109 1268v137l360 -8q280 0 395 8v-137h-119l437 -469h69l435 469h-117v137l319 -8q160 0 285 8v-137h-225l-437 -469h314v-135h-439l-94 -101v-203h533v-135h-533v-88h215v-137l-366 8l-369 -8v137h217v88h-532v135h532v201l-94 103h-438v135h311l-434 469h-225z" />
<glyph unicode="&#xa6;" horiz-adv-x="653" d="M264 326q0 28 18.5 47.5t45.5 19.5q26 0 43.5 -19.5t17.5 -47.5v-748q0 -17 -1 -28t-6.5 -27.5t-19.5 -25.5t-36 -9q-62 0 -62 90v748zM264 698v748q0 17 1.5 28t6.5 27.5t19.5 25.5t36.5 9q21 0 35 -9t19 -26t6 -28t1 -27v-748q0 -28 -17.5 -47.5t-43.5 -19.5 q-27 0 -45.5 19.5t-18.5 47.5z" />
<glyph unicode="&#xa7;" horiz-adv-x="1863" d="M147 614q0 106 63 188.5t161 117.5q-31 78 -31 145q0 96 50.5 173t134.5 125t188.5 73.5t218.5 25.5q106 0 203.5 -23t176.5 -66t126 -114t47 -159q0 -63 -45.5 -108.5t-108.5 -45.5t-108 45.5t-45 108.5q0 66 51 114q-35 14 -91.5 21.5t-95.5 8.5t-110 1 q-67 0 -124 -8.5t-108 -28t-80.5 -56t-29.5 -87.5q0 -29 11 -52t34 -38.5t46 -26.5t61 -18t64 -11t68 -8l330 -41q137 -16 252 -75t187.5 -160t72.5 -225q0 -107 -62.5 -190t-160.5 -118q31 -74 31 -143q0 -96 -50.5 -173t-134.5 -125t-188.5 -73.5t-218.5 -25.5 q-106 0 -203.5 23t-176.5 66t-126 114t-47 159q0 63 45 108.5t108 45.5t108.5 -45.5t45.5 -108.5q0 -66 -51 -114q35 -14 91.5 -21.5t95.5 -8.5t110 -1q67 0 124 8.5t108 28t80.5 56t29.5 87.5q0 29 -11 52t-34 38.5t-46.5 26.5t-61.5 18t-64 11t-68 8l-330 41 q-137 16 -252 75t-187.5 160t-72.5 225zM418 614q0 -57 42 -99t100.5 -61.5t131.5 -27.5l330 -41q202 -26 336 -125q38 18 63 58.5t25 91.5q0 57 -42 99t-101 61.5t-132 27.5l-329 41q-195 22 -336 123q-38 -18 -63 -58t-25 -90z" />
<glyph unicode="&#xa8;" d="M328 1235q0 63 45.5 108.5t111.5 45.5q65 0 112.5 -45.5t47.5 -110.5q0 -62 -47 -107t-113 -45q-64 0 -110.5 44.5t-46.5 109.5zM909 1235q0 63 46 108.5t112 45.5q65 0 112.5 -45.5t47.5 -110.5q0 -62 -47 -107t-113 -45q-64 0 -111 44.5t-47 109.5z" />
<glyph unicode="&#xa9;" horiz-adv-x="1404" d="M0 702q0 143 55.5 273.5t150 224.5t224 149.5t272.5 55.5q191 0 353 -94t256 -256t94 -353q0 -143 -55.5 -272.5t-149.5 -224t-224.5 -150t-273.5 -55.5q-114 0 -221 35.5t-193.5 100.5t-151.5 151.5t-100.5 193.5t-35.5 221zM176 702q0 -143 70.5 -264t191.5 -191.5 t264 -70.5t264.5 70.5t192 191.5t70.5 264t-70.5 264.5t-192 192t-264.5 70.5t-264 -70.5t-191.5 -192t-70.5 -264.5zM360 702q0 101 86.5 173.5t249.5 72.5q103 0 181 -49l47 41q11 8 18 8q14 0 17.5 -5.5t3.5 -18.5v-148q0 -15 -5 -19.5t-20 -4.5h-16q-21 0 -23 12 q-3 13 -4 17.5t-6.5 18.5t-11 22.5t-16.5 21t-25 22.5q-50 35 -119 35q-105 0 -172 -43q-68 -50 -68 -156q0 -198 242 -198q77 0 130 32.5t56 86.5q1 14 6 18t19 4h8q9 0 13 -0.5t8 -5t4 -12.5q0 -72 -72.5 -120t-192.5 -48q-86 0 -153 21t-106.5 56t-59 77.5t-19.5 88.5z " />
<glyph unicode="&#xaa;" horiz-adv-x="1349" d="M109 958q0 75 84.5 118.5t250.5 70.5q75 11 160 16.5t146.5 6.5t62.5 1v27q0 162 -244 162q-79 0 -145 -12q25 -25 25 -64q0 -46 -36.5 -77t-93.5 -31q-54 0 -91.5 30t-37.5 80q0 32 15.5 57t37 41t58.5 27.5t66 16.5t73.5 8t67 3.5t59.5 0.5q106 0 190 -14t136.5 -36.5 t86.5 -54t48 -64.5t14 -69v-305q37 -14 123 -14h11q17 0 25.5 -1t19.5 -5t15.5 -14t4.5 -27q0 -36 -18.5 -43t-104.5 -7h-55.5t-50 2t-48.5 5t-40 9t-35 15t-22 23t-13 32q-79 -98 -346 -98q-25 0 -44.5 0.5t-63.5 4t-78 10t-76.5 20t-70 32.5t-47 49t-19.5 68zM176 666 q0 20 20 33.5t48 13.5h862q28 0 48 -13.5t20 -33.5t-20 -34t-48 -14h-862q-28 0 -48 14t-20 34zM338 961q0 -49 60.5 -77t154.5 -28q102 0 172 23q31 10 50.5 21t27 25.5t9 24t1.5 27.5v125q-33 -1 -65 -2.5t-93.5 -6.5t-111 -15t-99.5 -24.5t-78 -38.5t-28 -54z" />
<glyph unicode="&#xab;" horiz-adv-x="1718" d="M365 455q0 26 20 39q235 142 363 391q12 24 40 24h25q19 0 32 -12.5t13 -32.5q0 -8 -2 -12q-65 -216 -205 -397q141 -183 205 -398q2 -4 2 -12q0 -19 -13 -32t-32 -13h-25q-26 0 -40 25q-125 248 -363 391q-20 13 -20 39zM860 455q0 25 21 39q234 141 362 391 q12 24 41 24h25q19 0 32 -12.5t13 -32.5q0 -8 -2 -12q-65 -216 -205 -397q141 -183 205 -398q2 -4 2 -12q0 -19 -13 -32t-32 -13h-25q-27 0 -41 25q-126 249 -362 391q-21 14 -21 39z" />
<glyph unicode="&#xac;" horiz-adv-x="2377" d="M201 786q0 37 25.5 62.5t62.5 25.5h1800q37 0 62.5 -25.5t25.5 -62.5v-548q0 -37 -25.5 -62.5t-62.5 -25.5t-62.5 25.5t-25.5 62.5v460h-1712q-37 0 -62.5 25.5t-25.5 62.5z" />
<glyph unicode="&#xad;" horiz-adv-x="1058" d="M68 332v246h790v-246h-790z" />
<glyph unicode="&#xae;" horiz-adv-x="1404" d="M0 702q0 143 55.5 273.5t150 224.5t224 149.5t272.5 55.5q191 0 353 -94t256 -256t94 -353q0 -143 -55.5 -272.5t-149.5 -224t-224.5 -150t-273.5 -55.5q-114 0 -221 35.5t-193.5 100.5t-151.5 151.5t-100.5 193.5t-35.5 221zM176 702q0 -143 70.5 -264t191.5 -191.5 t264 -70.5t264.5 70.5t192 191.5t70.5 264t-70.5 264.5t-192 192t-264.5 70.5t-264 -70.5t-191.5 -192t-70.5 -264.5zM397 475v45h74v375h-74v47h301q110 0 180 -36.5t70 -92.5q0 -73 -117 -106q58 -27 70 -89l10 -55q14 -61 62 -61q12 0 24 10t15 35q2 16 28 16 q29 0 29 -18q0 -8 -3.5 -19t-13 -26.5t-32 -26t-55.5 -10.5q-77 0 -117 18q-19 9 -30.5 19.5t-16 27t-5.5 29t-1 37.5q0 24 -1 34t-7 20.5t-19 19.5q-33 22 -84 22h-113v-170h72v-45l-123 2zM571 727h123q77 0 107 21t30 63q0 43 -30.5 63.5t-106.5 20.5h-123v-168z" />
<glyph unicode="&#xaf;" d="M242 1163v146h1069v-146h-1069z" />
<glyph unicode="&#xb0;" horiz-adv-x="1165" d="M170 993q0 170 121 291t291 121q113 0 208 -55.5t150 -150t55 -206.5q0 -171 -121 -292t-292 -121q-170 0 -291 121.5t-121 291.5zM346 993q0 -98 69.5 -167.5t166.5 -69.5q98 0 167.5 69.5t69.5 167.5q0 97 -69.5 166.5t-167.5 69.5q-97 0 -166.5 -69.5t-69.5 -166.5z " />
<glyph unicode="&#xb1;" horiz-adv-x="2377" d="M201 88q0 88 110 88h791v447h-791q-110 0 -110 88t110 88h791v512q0 110 88 110t88 -110v-512h788q111 0 111 -88t-111 -88h-788v-447h788q111 0 111 -88t-111 -88h-1755q-110 0 -110 88z" />
<glyph unicode="&#xb2;" horiz-adv-x="1118" d="M131 629v37q0 22 3.5 29.5t21.5 17.5l411 250q185 108 185 225q0 81 -79.5 125.5t-195.5 44.5q-83 0 -141 -25q39 -29 39 -76q0 -48 -37 -75t-86 -27q-44 0 -82.5 26t-38.5 76q0 37 19 67t46.5 49t68.5 32.5t75 20t77.5 10t63.5 4t45 0.5q218 0 339.5 -67.5t121.5 -184.5 q0 -27 -8 -51t-19.5 -42.5t-35 -38.5t-42 -33.5t-55.5 -32.5t-60 -30t-69 -32q-62 -28 -247 -125h221q112 0 147 4q11 2 24.5 24t20.5 56h123l-57 -258h-799z" />
<glyph unicode="&#xb3;" horiz-adv-x="1118" d="M113 811q0 49 36.5 79t92.5 30q55 0 91 -30.5t36 -76.5q0 -57 -54 -88q80 -43 222 -43q57 0 99 12.5t63 29.5t33.5 42.5t15 44t2.5 41.5q0 25 -3 44.5t-15.5 44.5t-34.5 41.5t-63.5 28t-98.5 11.5h-101q-19 0 -27.5 1t-17 8.5t-8.5 23.5q0 31 27 35q20 4 94 4 q50 2 89.5 15t62 31.5t37 41.5t19.5 42.5t5 37.5q0 110 -174 110q-115 0 -187 -43l5 -3q5 -3 11.5 -7.5t14.5 -12t14 -16.5t10.5 -22t4.5 -27q0 -45 -36 -72.5t-85 -27.5q-45 0 -82 26.5t-37 75.5q0 87 100 142t273 55q191 0 294 -51.5t103 -131.5q0 -76 -61.5 -125.5 t-143.5 -72.5q116 -24 190.5 -77t74.5 -132q0 -31 -12.5 -62.5t-46 -65t-83.5 -58.5t-133 -41.5t-188 -16.5q-206 0 -317 56t-111 149z" />
<glyph unicode="&#xb4;" d="M590 1192l340 215q45 27 82 27q57 0 96 -45t39 -103q0 -94 -109 -127l-376 -123z" />
<glyph unicode="&#xb5;" horiz-adv-x="1718" d="M197 -260h147v948q0 29 -1.5 41t-10 22.5t-27.5 14.5q-25 6 -108 6v137l421 17v-693q0 -21 0.5 -31t2 -25.5t5.5 -22.5t11 -17.5t18.5 -15t27 -10t37.5 -8t50 -4t64 -1.5q145 0 239 54q34 20 55 43t29 49t10 41.5t2 40.5v362q0 29 -1.5 41t-10 22.5t-27.5 14.5 q-25 6 -108 6v137l422 17v-705q0 -29 1.5 -41t10 -22.5t27.5 -14.5q25 -6 108 -6v-137l-405 -16v131q-49 -46 -106.5 -75t-117.5 -40t-94 -13.5t-82 -2.5q-111 0 -168 8v-252h148v-137l-285 8l-284 -8v137z" />
<glyph unicode="&#xb6;" horiz-adv-x="1439" d="M131 936q0 138 82 250.5t216.5 173.5t289.5 61h561q18 0 29 -1t28 -6.5t26 -19.5t9 -36q0 -62 -92 -62h-104v-1603q0 -17 -1.5 -28t-6.5 -27.5t-19.5 -25.5t-36.5 -9q-21 0 -35 9t-19 26t-6 27.5t-1 27.5v1603h-164v-1603q0 -17 -1.5 -28t-6.5 -27.5t-19.5 -25.5 t-36.5 -9q-21 0 -35 9t-19 26t-6 27.5t-1 27.5v758q-283 17 -457 149t-174 336z" />
<glyph unicode="&#xb7;" horiz-adv-x="2377" d="M1014 702q0 72 52 124.5t124 52.5t124 -52.5t52 -124.5t-52 -124t-124 -52t-124 52t-52 124z" />
<glyph unicode="&#xb8;" horiz-adv-x="1388" d="M393 -326h111q385 0 385 97q0 94 -209 94h-39v115h86q220 0 327 -48.5t107 -160.5q0 -134 -235 -181q-143 -30 -391 -30h-142v114z" />
<glyph unicode="&#xb9;" horiz-adv-x="1144" d="M201 1280v82h39q225 0 350 78h31q35 0 45 -8.5t10 -38.5v-682h268v-82q-72 4 -366 4q-293 0 -365 -4v82h266v600q-109 -31 -239 -31h-39z" />
<glyph unicode="&#xba;" horiz-adv-x="1304" d="M98 1098q0 49 18 96t60 92.5t104 79t157.5 54t213.5 20.5q145 0 256 -30.5t174 -81t94 -109t31 -121.5q0 -60 -30.5 -115t-93.5 -103.5t-174 -77t-257 -28.5q-144 0 -254.5 29t-173.5 76.5t-94 103t-31 115.5zM166 666q0 20 19.5 33.5t47.5 13.5h838q28 0 48 -13.5 t20 -33.5t-20 -34t-48 -14h-838q-28 0 -47.5 14t-19.5 34zM356 1114q0 -26 0.5 -39.5t3 -38.5t7.5 -39t15 -35t24.5 -33t37 -26t51.5 -21.5t68.5 -12.5t87.5 -5q72 0 125 9.5t84.5 30.5t50.5 40t26.5 54t9 56t1.5 60q0 25 -0.5 38.5t-3 38t-7.5 38t-15 34t-24.5 32.5 t-37.5 26t-52 21.5t-69 12.5t-88 5t-87.5 -5t-68.5 -12.5t-51.5 -21.5t-37 -25.5t-24.5 -32t-15 -34t-7.5 -38t-3 -38t-0.5 -39.5z" />
<glyph unicode="&#xbb;" horiz-adv-x="1718" d="M367 45v12q65 218 204 398q-138 179 -204 397v12q0 20 12.5 32.5t32.5 12.5h24q27 0 39 -24q131 -249 363 -391q22 -15 22 -39t-22 -39q-234 -143 -363 -391q-14 -25 -39 -25h-24q-20 0 -32.5 13t-12.5 32zM862 45v12q64 215 205 398q-140 181 -205 397v12 q0 20 12.5 32.5t32.5 12.5h25q27 0 39 -24q131 -250 362 -391q23 -15 23 -39t-23 -39q-233 -142 -362 -391q-14 -25 -39 -25h-25q-20 0 -32.5 13t-12.5 32z" />
<glyph unicode="&#xbc;" horiz-adv-x="2570" d="M201 1280v82h39q225 0 350 78h31q35 0 45 -8.5t10 -38.5v-682h268v-82q-72 4 -366 4q-293 0 -365 -4v82h266v600q-109 -31 -239 -31h-39zM705 41q0 38 24 59l1241 1325q27 27 66 27q36 0 62 -26t26 -62q0 -34 -25 -59l-1243 -1323q-26 -29 -63 -29t-62.5 25.5t-25.5 62.5 zM1419 190v82l535 529q14 14 23 17t38 3h105q35 0 46 -8.5t11 -36.5v-504h193v-82h-193v-108h193v-82q-78 4 -302 4q-237 0 -309 -4v82h207v108h-547zM1548 272h445v441z" />
<glyph unicode="&#xbd;" horiz-adv-x="2570" d="M201 1280v82h39q225 0 350 78h31q35 0 45 -8.5t10 -38.5v-682h268v-82q-72 4 -366 4q-293 0 -365 -4v82h266v600q-109 -31 -239 -31h-39zM575 41q0 34 25 59l1241 1325q27 27 66 27q37 0 62.5 -25.5t25.5 -62.5q0 -34 -25 -59l-1241 -1323q-26 -29 -65 -29 q-37 0 -63 25.5t-26 62.5zM1513 0v39q0 21 4 28t23 17l410 250q184 109 184 225q0 81 -79 125.5t-193 44.5q-89 0 -144 -24q39 -29 39 -76q0 -48 -37.5 -75.5t-85.5 -27.5q-43 0 -82 27.5t-39 77.5q0 37 19 66.5t46.5 48t69 32.5t75.5 20.5t77.5 10t64 4t44.5 0.5 q217 0 339 -68.5t122 -183.5q0 -37 -14.5 -68.5t-35.5 -54t-61 -47.5t-73.5 -42t-89.5 -44q-9 -4 -13 -6q-84 -36 -248 -125h219q113 0 150 4q10 2 23 25t20 57h123l-58 -260h-799z" />
<glyph unicode="&#xbe;" horiz-adv-x="2570" d="M227 811q0 49 36.5 79t92.5 30q55 0 90 -30.5t35 -76.5q0 -58 -51 -88q78 -43 221 -43q57 0 98.5 12.5t63 29.5t33.5 42.5t15 44t3 41.5q0 32 -6.5 56.5t-26.5 53t-66 44.5t-116 16h-102q-19 0 -27.5 1t-16 8.5t-7.5 23.5q0 31 26 35q20 4 92 4q63 2 108 20.5t67 46.5 t31 53t9 48q0 50 -38 80t-138 30q-111 0 -186 -43q4 -2 8 -4.5t14 -10.5t17.5 -17t13.5 -24t6 -32q0 -45 -35.5 -72.5t-82.5 -27.5t-84 26.5t-37 75.5q0 87 100.5 142t274.5 55q189 0 292 -51.5t103 -131.5q0 -76 -61 -125t-142 -73q116 -24 190 -77t74 -132 q0 -31 -12.5 -62.5t-46 -65t-83.5 -58.5t-133 -41.5t-188 -16.5q-207 0 -317.5 56t-110.5 149zM705 41q0 38 24 59l1241 1325q27 27 66 27q36 0 62 -26t26 -62q0 -34 -25 -59l-1243 -1323q-26 -29 -63 -29t-62.5 25.5t-25.5 62.5zM1419 190v82l535 529q14 14 23 17t38 3h105 q35 0 46 -8.5t11 -36.5v-504h193v-82h-193v-108h193v-82q-78 4 -302 4q-237 0 -309 -4v82h207v108h-547zM1548 272h445v441z" />
<glyph unicode="&#xbf;" horiz-adv-x="1470" d="M201 -145q0 136 141 211q55 29 99 61t71.5 59.5t47.5 60.5t29.5 55.5t14.5 54t5.5 47t0.5 42.5v21q0 44 12.5 56t57.5 12h29q49 0 60 -15.5t11 -73.5q0 -83 -14.5 -149.5t-46 -122.5t-68 -100t-94.5 -99q-17 -16 -25.5 -27t-16 -38t-7.5 -68q0 -45 4.5 -67t24.5 -41.5 t60.5 -26t111.5 -6.5q208 0 303 39l-13.5 13.5t-22 38.5t-13.5 63q0 69 44 111t109 42q63 0 108.5 -41t45.5 -114q0 -55 -22 -98.5t-53.5 -71t-84.5 -47t-95.5 -29t-108.5 -15t-101.5 -6t-93.5 -0.5q-69 0 -110 1.5t-107 12t-117 31.5q-66 26 -107.5 67t-55 78.5t-13.5 78.5 zM518 848q0 72 52 124t124 52t124 -52t52 -124t-52 -124t-124 -52t-124 52t-52 124z" />
<glyph unicode="&#xc0;" horiz-adv-x="2281" d="M147 0v137h209l594 1252q12 25 24 39t28.5 20t27 7t33.5 1h156q29 0 46.5 -3t30 -14.5t18 -21t17.5 -33.5l594 -1247h209v-137l-342 8l-371 -8v137h170l-143 299h-737l-142 -299h170v-137l-311 8q-156 0 -281 -8zM770 1788q0 57 39 102t96 45q39 0 82 -26l340 -215 l-72 -156l-376 123q-109 33 -109 127zM776 573h608l-305 639z" />
<glyph unicode="&#xc1;" horiz-adv-x="2281" d="M147 0v137h209l594 1252q12 25 24 39t28.5 20t27 7t33.5 1h156q29 0 46.5 -3t30 -14.5t18 -21t17.5 -33.5l594 -1247h209v-137l-342 8l-371 -8v137h170l-143 299h-737l-142 -299h170v-137l-311 8q-156 0 -281 -8zM776 573h608l-305 639zM954 1694l340 215q43 26 82 26 q57 0 96 -45t39 -102q0 -94 -108 -127l-377 -123z" />
<glyph unicode="&#xc2;" horiz-adv-x="2281" d="M147 0v137h209l594 1252q12 25 24 39t28.5 20t27 7t33.5 1h156q29 0 46.5 -3t30 -14.5t18 -21t17.5 -33.5l594 -1247h209v-137l-342 8l-371 -8v137h170l-143 299h-737l-142 -299h170v-137l-311 8q-156 0 -281 -8zM776 573h608l-305 639zM782 1567l359 288l358 -288 l-33 -49l-327 118l-328 -118z" />
<glyph unicode="&#xc3;" horiz-adv-x="2281" d="M147 0v137h209l594 1252q12 25 24 39t28.5 20t27 7t33.5 1h156q29 0 46.5 -3t30 -14.5t18 -21t17.5 -33.5l594 -1247h209v-137l-342 8l-371 -8v137h170l-143 299h-737l-142 -299h170v-137l-311 8q-156 0 -281 -8zM647 1606q73 61 98.5 84t45.5 39q34 28 58.5 46t72.5 39 t90 21q41 0 77 -14.5t91 -46.5q82 -54 147 -54q100 0 232 115l75 -88q-73 -61 -98.5 -84.5t-44.5 -38.5q-34 -28 -58.5 -46t-72.5 -39t-90 -21q-41 0 -77 14.5t-91 46.5q-81 53 -148 53q-100 0 -231 -114zM776 573h608l-305 639z" />
<glyph unicode="&#xc4;" horiz-adv-x="2281" d="M147 0v137h209l594 1252q12 25 24 39t28.5 20t27 7t33.5 1h156q29 0 46.5 -3t30 -14.5t18 -21t17.5 -33.5l594 -1247h209v-137l-342 8l-371 -8v137h170l-143 299h-737l-142 -299h170v-137l-311 8q-156 0 -281 -8zM639 1671q0 63 46 108.5t112 45.5q65 0 112 -45.5 t47 -110.5q0 -62 -46.5 -106.5t-112.5 -44.5q-64 0 -111 44t-47 109zM776 573h608l-305 639zM1327 1671q0 63 46 108.5t112 45.5q65 0 112.5 -45.5t47.5 -110.5q0 -62 -47 -106.5t-113 -44.5q-64 0 -111 44t-47 109z" />
<glyph unicode="&#xc5;" horiz-adv-x="2281" d="M147 0v137h209l594 1252q12 25 24 39t28.5 20t27 7t33.5 1h156q29 0 46.5 -3t30 -14.5t18 -21t17.5 -33.5l594 -1247h209v-137l-342 8l-371 -8v137h170l-143 299h-737l-142 -299h170v-137l-311 8q-156 0 -281 -8zM776 573h608l-305 639zM811 1630q0 28 16 55.5t51 54.5 t103 43.5t160 16.5q90 0 157.5 -16.5t103 -43t52 -54t16.5 -56.5q0 -71 -80.5 -122.5t-248.5 -51.5t-249 51t-81 123zM993 1628q0 -22 7 -37t16 -22.5t31.5 -11.5t39.5 -4.5t54 -0.5q38 0 54.5 0.5t39 4t31.5 11.5t15.5 22.5t6.5 37.5q0 22 -7 37t-15.5 22.5t-31 11.5 t-39.5 4.5t-54 0.5q-38 0 -55 -0.5t-39.5 -4t-31 -11.5t-15.5 -22.5t-7 -37.5z" />
<glyph unicode="&#xc6;" horiz-adv-x="2742" d="M145 0v137h209l525 1131h-97v137h1680l80 -422h-170q-11 55 -30 98t-41.5 73t-55.5 51t-64.5 33t-75 19t-80.5 9t-88 2h-366v-523h194q49 0 80.5 2.5t67 12t56 27.5t34.5 50t16 78h170v-477h-170q-2 46 -16 78t-34.5 50t-56 27.5t-67 12t-80.5 2.5h-194v-471h393 q80 0 137.5 6t118 26t102.5 55.5t77.5 97t56.5 147.5h170l-119 -469h-1403v137h162v471h-482l-217 -471h170v-137l-309 8q-158 0 -283 -8zM850 745h416v523h-174z" />
<glyph unicode="&#xc7;" horiz-adv-x="2213" d="M201 702q0 113 37 218.5t118 200.5t197.5 165.5t286.5 112t374 41.5q306 0 539 -144l141 121q20 16 28.5 19.5t29.5 3.5q22 0 35 -4.5t18.5 -16t6.5 -21t1 -30.5v-444q0 -46 -12.5 -59t-58.5 -13h-50q-21 0 -31.5 1t-22.5 10t-15 26q-9 41 -17 65.5t-28.5 71.5t-57.5 90 t-90 80q-155 107 -358 107q-315 0 -514 -134q-205 -143 -205 -467q0 -307 189 -453.5t538 -146.5q150 0 275 43t203 126t85 192q3 44 16.5 54.5t55.5 10.5h27q19 0 28.5 -1t21 -6t16.5 -17.5t5 -32.5q0 -190 -169 -327.5t-460 -170.5q151 -12 225 -60.5t74 -141.5 q0 -134 -235 -181q-143 -30 -391 -30h-142v114h111q385 0 385 97q0 94 -209 94h-39v100q-197 5 -360 50t-273 116.5t-185.5 165.5t-109.5 195.5t-34 209.5z" />
<glyph unicode="&#xc8;" horiz-adv-x="2002" d="M188 0v137h218v1114h-218v138h1534l80 -422h-170q-12 55 -32.5 98.5t-46 73t-62 51t-71.5 33t-83 18t-88 8.5t-96 2h-428v-463h182q47 0 76.5 2t66 11.5t56.5 26.5t35 50t16 80h170v-477h-170q-1 47 -16 80t-35 50t-56.5 26.5t-66 11.5t-76.5 2h-182v-514h457 q70 0 121 3.5t110 15t101.5 34t83.5 58.5t70 91.5t48 129.5h170l-119 -469h-1579zM631 1788q0 57 39 102t96 45q39 0 82 -26l340 -215l-72 -156l-377 123q-108 33 -108 127z" />
<glyph unicode="&#xc9;" horiz-adv-x="2002" d="M188 0v137h218v1114h-218v138h1534l80 -422h-170q-12 55 -32.5 98.5t-46 73t-62 51t-71.5 33t-83 18t-88 8.5t-96 2h-428v-463h182q47 0 76.5 2t66 11.5t56.5 26.5t35 50t16 80h170v-477h-170q-1 47 -16 80t-35 50t-56.5 26.5t-66 11.5t-76.5 2h-182v-514h457 q70 0 121 3.5t110 15t101.5 34t83.5 58.5t70 91.5t48 129.5h170l-119 -469h-1579zM815 1694l340 215q43 26 82 26q57 0 96 -45t39 -102q0 -94 -108 -127l-377 -123z" />
<glyph unicode="&#xca;" horiz-adv-x="2002" d="M188 0v137h218v1114h-218v138h1534l80 -422h-170q-12 55 -32.5 98.5t-46 73t-62 51t-71.5 33t-83 18t-88 8.5t-96 2h-428v-463h182q47 0 76.5 2t66 11.5t56.5 26.5t35 50t16 80h170v-477h-170q-1 47 -16 80t-35 50t-56.5 26.5t-66 11.5t-76.5 2h-182v-514h457 q70 0 121 3.5t110 15t101.5 34t83.5 58.5t70 91.5t48 129.5h170l-119 -469h-1579zM643 1567l358 288l359 -288l-33 -49l-328 118l-327 -118z" />
<glyph unicode="&#xcb;" horiz-adv-x="2002" d="M188 0v137h218v1114h-218v138h1534l80 -422h-170q-12 55 -32.5 98.5t-46 73t-62 51t-71.5 33t-83 18t-88 8.5t-96 2h-428v-463h182q47 0 76.5 2t66 11.5t56.5 26.5t35 50t16 80h170v-477h-170q-1 47 -16 80t-35 50t-56.5 26.5t-66 11.5t-76.5 2h-182v-514h457 q70 0 121 3.5t110 15t101.5 34t83.5 58.5t70 91.5t48 129.5h170l-119 -469h-1579zM500 1671q0 63 45.5 108.5t111.5 45.5q65 0 112.5 -45.5t47.5 -110.5q0 -62 -47 -106.5t-113 -44.5q-64 0 -110.5 44t-46.5 109zM1188 1671q0 63 46 108.5t112 45.5q65 0 112 -45.5 t47 -110.5q0 -62 -46.5 -106.5t-112.5 -44.5q-64 0 -111 44t-47 109z" />
<glyph unicode="&#xcc;" horiz-adv-x="1126" d="M176 0v137h227v1131h-227v137q125 -8 387 -8t387 8v-137h-227v-1131h227v-137q-125 8 -387 8t-387 -8zM193 1788q0 57 39 102t96 45q39 0 82 -26l340 -215l-72 -156l-377 123q-108 33 -108 127z" />
<glyph unicode="&#xcd;" horiz-adv-x="1126" d="M176 0v137h227v1131h-227v137q125 -8 387 -8t387 8v-137h-227v-1131h227v-137q-125 8 -387 8t-387 -8zM377 1694l340 215q43 26 82 26q57 0 96 -45t39 -102q0 -94 -109 -127l-376 -123z" />
<glyph unicode="&#xce;" horiz-adv-x="1126" d="M176 0v137h227v1131h-227v137q125 -8 387 -8t387 8v-137h-227v-1131h227v-137q-125 8 -387 8t-387 -8zM205 1567l358 288l359 -288l-33 -49l-328 118l-328 -118z" />
<glyph unicode="&#xcf;" horiz-adv-x="1126" d="M61 1671q0 63 46 108.5t112 45.5q65 0 112.5 -45.5t47.5 -110.5q0 -62 -47 -106.5t-113 -44.5q-64 0 -111 44t-47 109zM176 0v137h227v1131h-227v137q125 -8 387 -8t387 8v-137h-227v-1131h227v-137q-125 8 -387 8t-387 -8zM750 1671q0 63 45.5 108.5t111.5 45.5 q65 0 112.5 -45.5t47.5 -110.5q0 -62 -47 -106.5t-113 -44.5q-64 0 -110.5 44t-46.5 109z" />
<glyph unicode="&#xd0;" horiz-adv-x="2330" d="M197 0v137h217v498h-217v135h217v498h-217v137h1048q259 0 459.5 -89t312 -252t111.5 -374q0 -151 -63.5 -279t-178 -218.5t-279.5 -141.5t-362 -51h-1048zM717 137h446q99 0 183 13.5t144.5 34.5t108.5 54.5t79 66.5t53.5 78t34 80t18 82.5t7.5 76.5t1 69q0 187 -46 290 t-134 169q-161 117 -451 117h-444v-498h448v-135h-448v-498z" />
<glyph unicode="&#xd1;" horiz-adv-x="2361" d="M188 0v137h218v1131h-218v137h482q30 0 43 -3.5t32 -21.5l1024 -979v867h-217v137l312 -8l309 8v-137h-217v-1190q0 -49 -15 -63.5t-63 -14.5h-31q-34 0 -44.5 4t-33.5 25l-1177 1124v-1016h217v-137l-311 8zM686 1606q73 61 98.5 84.5t44.5 38.5q129 106 222 106 q41 0 77 -14.5t91 -46.5q82 -54 147 -54q99 0 231 115l76 -88q-73 -61 -98.5 -84.5t-44.5 -38.5q-34 -28 -58.5 -46t-72.5 -39t-90 -21q-41 0 -77 14.5t-91 46.5q-81 53 -148 53q-100 0 -231 -114z" />
<glyph unicode="&#xd2;" horiz-adv-x="2297" d="M201 692q0 114 33.5 220t107.5 202.5t182 168.5t269 114.5t356 42.5t355.5 -42.5t268.5 -114t182.5 -168t108 -203t33.5 -220.5q0 -110 -33.5 -213t-107.5 -197.5t-182 -164t-269 -111t-356 -41.5t-355.5 41t-268.5 111t-182.5 164t-108 197t-33.5 214zM553 727 q0 -107 18.5 -198t62 -172.5t110.5 -138t170 -89.5t235 -33q155 0 270.5 45t186 129.5t105 198.5t34.5 258q0 303 -160 444q-161 142 -436 142q-284 0 -440 -144q-156 -149 -156 -442zM778 1788q0 57 39 102t96 45q39 0 82 -26l340 -215l-71 -156l-377 123q-109 33 -109 127 z" />
<glyph unicode="&#xd3;" horiz-adv-x="2297" d="M201 692q0 114 33.5 220t107.5 202.5t182 168.5t269 114.5t356 42.5t355.5 -42.5t268.5 -114t182.5 -168t108 -203t33.5 -220.5q0 -110 -33.5 -213t-107.5 -197.5t-182 -164t-269 -111t-356 -41.5t-355.5 41t-268.5 111t-182.5 164t-108 197t-33.5 214zM553 727 q0 -107 18.5 -198t62 -172.5t110.5 -138t170 -89.5t235 -33q155 0 270.5 45t186 129.5t105 198.5t34.5 258q0 303 -160 444q-161 142 -436 142q-284 0 -440 -144q-156 -149 -156 -442zM963 1694l340 215q43 26 81 26q57 0 96.5 -45t39.5 -102q0 -94 -109 -127l-377 -123z " />
<glyph unicode="&#xd4;" horiz-adv-x="2297" d="M201 692q0 114 33.5 220t107.5 202.5t182 168.5t269 114.5t356 42.5t355.5 -42.5t268.5 -114t182.5 -168t108 -203t33.5 -220.5q0 -110 -33.5 -213t-107.5 -197.5t-182 -164t-269 -111t-356 -41.5t-355.5 41t-268.5 111t-182.5 164t-108 197t-33.5 214zM553 727 q0 -107 18.5 -198t62 -172.5t110.5 -138t170 -89.5t235 -33q155 0 270.5 45t186 129.5t105 198.5t34.5 258q0 303 -160 444q-161 142 -436 142q-284 0 -440 -144q-156 -149 -156 -442zM791 1567l358 288l358 -288l-32 -49l-328 118l-328 -118z" />
<glyph unicode="&#xd5;" horiz-adv-x="2297" d="M201 692q0 114 33.5 220t107.5 202.5t182 168.5t269 114.5t356 42.5t355.5 -42.5t268.5 -114t182.5 -168t108 -203t33.5 -220.5q0 -110 -33.5 -213t-107.5 -197.5t-182 -164t-269 -111t-356 -41.5t-355.5 41t-268.5 111t-182.5 164t-108 197t-33.5 214zM553 727 q0 -107 18.5 -198t62 -172.5t110.5 -138t170 -89.5t235 -33q155 0 270.5 45t186 129.5t105 198.5t34.5 258q0 303 -160 444q-161 142 -436 142q-284 0 -440 -144q-156 -149 -156 -442zM655 1606q73 61 98.5 84t45.5 39q34 28 58.5 46t72.5 39t90 21q41 0 77 -14.5t91 -46.5 q82 -54 147 -54q100 0 232 115l75 -88q-73 -61 -98.5 -84.5t-44.5 -38.5q-34 -28 -58.5 -46t-72.5 -39t-90 -21q-41 0 -77 14.5t-91 46.5q-81 53 -147 53q-101 0 -232 -114z" />
<glyph unicode="&#xd6;" horiz-adv-x="2297" d="M201 692q0 114 33.5 220t107.5 202.5t182 168.5t269 114.5t356 42.5t355.5 -42.5t268.5 -114t182.5 -168t108 -203t33.5 -220.5q0 -110 -33.5 -213t-107.5 -197.5t-182 -164t-269 -111t-356 -41.5t-355.5 41t-268.5 111t-182.5 164t-108 197t-33.5 214zM553 727 q0 -107 18.5 -198t62 -172.5t110.5 -138t170 -89.5t235 -33q155 0 270.5 45t186 129.5t105 198.5t34.5 258q0 303 -160 444q-161 142 -436 142q-284 0 -440 -144q-156 -149 -156 -442zM647 1671q0 63 46 108.5t112 45.5q65 0 112.5 -45.5t47.5 -110.5q0 -62 -47 -106.5 t-113 -44.5q-64 0 -111 44t-47 109zM1335 1671q0 63 46 108.5t112 45.5q65 0 112.5 -45.5t47.5 -110.5q0 -62 -47 -106.5t-113 -44.5q-64 0 -111 44t-47 109z" />
<glyph unicode="&#xd7;" horiz-adv-x="2377" d="M489 -186q-61 61 17 139l559 559l-559 559q-78 78 -17 141q64 62 142 -16l559 -559l557 557q79 78 141 16t-16 -139l-557 -559l559 -559q78 -78 14 -139q-61 -62 -139 16l-559 559l-559 -559q-79 -79 -142 -16z" />
<glyph unicode="&#xd8;" horiz-adv-x="2377" d="M201 692q0 111 33.5 215t109.5 202t188 170.5t281.5 116.5t376.5 44q276 0 498 -82l167 190l95 -86l-144 -162q99 -54 173.5 -128.5t116 -156.5t61.5 -162.5t20 -160.5q0 -89 -24 -174.5t-72.5 -168t-129 -151t-187 -121.5t-254 -82.5t-322.5 -29.5q-284 0 -500 80 l-166 -188l-94 86l139 157q-109 60 -185.5 139.5t-113.5 162t-52 152t-15 138.5zM520 692q0 -329 162 -463l903 1016q-154 80 -397 80q-350 0 -514 -164q-77 -76 -115.5 -185.5t-38.5 -283.5zM791 158q146 -78 399 -78q363 0 528 168q140 145 140 444q0 89 -11.5 164 t-27.5 123t-40.5 89.5t-43.5 62.5t-43 43z" />
<glyph unicode="&#xd9;" horiz-adv-x="2320" d="M188 1268v137l377 -8l377 8v-137h-217v-795q0 -65 12 -117.5t44 -101t84 -81t135 -52t194 -19.5t201.5 19t166 60.5t118 117.5t42.5 180v789h-217v137q136 -8 314 -8q69 0 313 8v-137h-217v-795q0 -74 -23 -143.5t-77.5 -137t-136 -117t-208 -80t-282.5 -30.5 q-197 0 -351 42.5t-246 115t-138.5 162t-46.5 190.5v793h-218zM860 1788q0 57 39 102t96 45q39 0 82 -26l340 -215l-71 -156l-377 123q-109 33 -109 127z" />
<glyph unicode="&#xda;" horiz-adv-x="2320" d="M188 1268v137l377 -8l377 8v-137h-217v-795q0 -65 12 -117.5t44 -101t84 -81t135 -52t194 -19.5t201.5 19t166 60.5t118 117.5t42.5 180v789h-217v137q136 -8 314 -8q69 0 313 8v-137h-217v-795q0 -74 -23 -143.5t-77.5 -137t-136 -117t-208 -80t-282.5 -30.5 q-197 0 -351 42.5t-246 115t-138.5 162t-46.5 190.5v793h-218zM1044 1694l340 215q43 26 82 26q57 0 96.5 -45t39.5 -102q0 -94 -109 -127l-377 -123z" />
<glyph unicode="&#xdb;" horiz-adv-x="2320" d="M188 1268v137l377 -8l377 8v-137h-217v-795q0 -65 12 -117.5t44 -101t84 -81t135 -52t194 -19.5t201.5 19t166 60.5t118 117.5t42.5 180v789h-217v137q136 -8 314 -8q69 0 313 8v-137h-217v-795q0 -74 -23 -143.5t-77.5 -137t-136 -117t-208 -80t-282.5 -30.5 q-197 0 -351 42.5t-246 115t-138.5 162t-46.5 190.5v793h-218zM872 1567l359 288l358 -288l-33 -49l-327 118l-328 -118z" />
<glyph unicode="&#xdc;" horiz-adv-x="2320" d="M188 1268v137l377 -8l377 8v-137h-217v-795q0 -65 12 -117.5t44 -101t84 -81t135 -52t194 -19.5t201.5 19t166 60.5t118 117.5t42.5 180v789h-217v137q136 -8 314 -8q69 0 313 8v-137h-217v-795q0 -74 -23 -143.5t-77.5 -137t-136 -117t-208 -80t-282.5 -30.5 q-197 0 -351 42.5t-246 115t-138.5 162t-46.5 190.5v793h-218zM729 1671q0 63 46 108.5t112 45.5q65 0 112.5 -45.5t47.5 -110.5q0 -62 -47 -106.5t-113 -44.5q-64 0 -111 44t-47 109zM1417 1671q0 63 46 108.5t112 45.5q65 0 112.5 -45.5t47.5 -110.5q0 -62 -47 -106.5 t-113 -44.5q-64 0 -111 44t-47 109z" />
<glyph unicode="&#xdd;" horiz-adv-x="2281" d="M109 1268v137l360 -8q280 0 395 8v-137h-119l472 -506l469 506h-117v137l319 -8q160 0 285 8v-137h-225l-656 -705v-426h215v-137l-366 8l-369 -8v137h217v424l-655 707h-225zM954 1694l340 215q43 26 82 26q57 0 96 -45t39 -102q0 -94 -108 -127l-377 -123z" />
<glyph unicode="&#xde;" horiz-adv-x="1921" d="M207 2v135h215v1131h-215v135l358 -6l357 6v-135h-215v-92h411q276 0 438 -116t162 -290q0 -52 -16.5 -104t-61 -107.5t-113 -97.5t-182 -69t-258.5 -27h-380v-228h215v-135l-359 6zM707 502h290q90 0 160.5 18t111.5 45.5t67.5 64.5t36 71.5t9.5 70.5q0 49 -17 94 t-53.5 84.5t-103 63.5t-155.5 24h-346v-536z" />
<glyph unicode="&#xdf;" horiz-adv-x="1562" d="M172 0v137h147v635h-147v137h147v221q0 148 139 228t376 80q115 0 207.5 -18.5t150.5 -47.5t97 -68.5t55 -79.5t16 -81q0 -59 -23 -109.5t-62 -86t-76 -58.5t-79 -41q324 -157 324 -479q0 -171 -141.5 -278t-374.5 -107q-129 0 -199 62.5t-70 141.5q0 56 35.5 91.5 t91.5 35.5q52 0 88.5 -34.5t36.5 -90.5q0 -47 -28 -84q16 -8 41 -8q237 0 237 271q0 90 -19.5 163.5t-61 132t-112.5 92.5t-167 38q-15 1 -23 2.5t-18 6.5t-14.5 17t-4.5 31q0 20 4.5 31.5t16 17t19.5 6.5t28 2q268 12 268 234q0 92 -60.5 136t-185.5 44q-53 0 -95 -8.5 t-68 -20t-45 -31t-28 -35t-14 -38.5t-5.5 -34.5t-0.5 -29.5v-1126q-55 8 -151 8q-145 0 -252 -8z" />
<glyph unicode="&#xe0;" horiz-adv-x="1511" d="M119 246q0 108 101 170t298 98q70 13 151 21t135 10t102.5 3t51.5 1v39q0 231 -290 231q-96 0 -172 -16q28 -39 28 -92q0 -66 -43 -110t-110 -44q-64 0 -109 42.5t-45 113.5q0 46 18.5 82t44 58.5t69.5 39t78.5 24.5t87 12t79.5 4.5t72 0.5q126 0 225.5 -20t162 -52.5 t103.5 -77.5t57.5 -91.5t16.5 -98.5v-436q45 -21 145 -21h13q22 0 31.5 -1t22.5 -7t18 -20.5t5 -38.5q0 -51 -21.5 -60.5t-123.5 -9.5q-44 0 -66 0.5t-59.5 2.5t-58 6.5t-47.5 13.5t-41 22t-26 32.5t-15 45.5q-47 -68 -154 -103.5t-260 -35.5q-29 0 -52.5 0.5t-76 5.5 t-93 14.5t-91 29t-83.5 46t-56 69.5t-23 97zM385 1286q0 58 39 103t96 45q37 0 82 -27l340 -215l-72 -156l-376 123q-109 33 -109 127zM391 248q0 -69 73 -109.5t185 -40.5q121 0 205 33q30 11 50.5 25.5t31 26.5t16 30t6 28.5t0.5 30.5v179q-26 -1 -40.5 -2t-55.5 -3.5 t-70 -6t-75 -9t-80 -14t-74 -19.5t-68.5 -26t-53.5 -32.5t-37.5 -41t-12.5 -49.5z" />
<glyph unicode="&#xe1;" horiz-adv-x="1511" d="M119 246q0 108 101 170t298 98q70 13 151 21t135 10t102.5 3t51.5 1v39q0 231 -290 231q-96 0 -172 -16q28 -39 28 -92q0 -66 -43 -110t-110 -44q-64 0 -109 42.5t-45 113.5q0 46 18.5 82t44 58.5t69.5 39t78.5 24.5t87 12t79.5 4.5t72 0.5q126 0 225.5 -20t162 -52.5 t103.5 -77.5t57.5 -91.5t16.5 -98.5v-436q45 -21 145 -21h13q22 0 31.5 -1t22.5 -7t18 -20.5t5 -38.5q0 -51 -21.5 -60.5t-123.5 -9.5q-44 0 -66 0.5t-59.5 2.5t-58 6.5t-47.5 13.5t-41 22t-26 32.5t-15 45.5q-47 -68 -154 -103.5t-260 -35.5q-29 0 -52.5 0.5t-76 5.5 t-93 14.5t-91 29t-83.5 46t-56 69.5t-23 97zM391 248q0 -69 73 -109.5t185 -40.5q121 0 205 33q30 11 50.5 25.5t31 26.5t16 30t6 28.5t0.5 30.5v179q-26 -1 -40.5 -2t-55.5 -3.5t-70 -6t-75 -9t-80 -14t-74 -19.5t-68.5 -26t-53.5 -32.5t-37.5 -41t-12.5 -49.5zM569 1192 l340 215q45 27 82 27q57 0 96 -45t39 -103q0 -94 -108 -127l-377 -123z" />
<glyph unicode="&#xe2;" horiz-adv-x="1511" d="M119 246q0 108 101 170t298 98q70 13 151 21t135 10t102.5 3t51.5 1v39q0 231 -290 231q-96 0 -172 -16q28 -39 28 -92q0 -66 -43 -110t-110 -44q-64 0 -109 42.5t-45 113.5q0 46 18.5 82t44 58.5t69.5 39t78.5 24.5t87 12t79.5 4.5t72 0.5q126 0 225.5 -20t162 -52.5 t103.5 -77.5t57.5 -91.5t16.5 -98.5v-436q45 -21 145 -21h13q22 0 31.5 -1t22.5 -7t18 -20.5t5 -38.5q0 -51 -21.5 -60.5t-123.5 -9.5q-44 0 -66 0.5t-59.5 2.5t-58 6.5t-47.5 13.5t-41 22t-26 32.5t-15 45.5q-47 -68 -154 -103.5t-260 -35.5q-29 0 -52.5 0.5t-76 5.5 t-93 14.5t-91 29t-83.5 46t-56 69.5t-23 97zM391 248q0 -69 73 -109.5t185 -40.5q121 0 205 33q30 11 50.5 25.5t31 26.5t16 30t6 28.5t0.5 30.5v179q-26 -1 -40.5 -2t-55.5 -3.5t-70 -6t-75 -9t-80 -14t-74 -19.5t-68.5 -26t-53.5 -32.5t-37.5 -41t-12.5 -49.5zM393 1069 l363 379l362 -379l-41 -45l-323 203l-324 -203z" />
<glyph unicode="&#xe3;" horiz-adv-x="1511" d="M119 246q0 108 101 170t298 98q70 13 151 21t135 10t102.5 3t51.5 1v39q0 231 -290 231q-96 0 -172 -16q28 -39 28 -92q0 -66 -43 -110t-110 -44q-64 0 -109 42.5t-45 113.5q0 46 18.5 82t44 58.5t69.5 39t78.5 24.5t87 12t79.5 4.5t72 0.5q126 0 225.5 -20t162 -52.5 t103.5 -77.5t57.5 -91.5t16.5 -98.5v-436q45 -21 145 -21h13q22 0 31.5 -1t22.5 -7t18 -20.5t5 -38.5q0 -51 -21.5 -60.5t-123.5 -9.5q-44 0 -66 0.5t-59.5 2.5t-58 6.5t-47.5 13.5t-41 22t-26 32.5t-15 45.5q-47 -68 -154 -103.5t-260 -35.5q-29 0 -52.5 0.5t-76 5.5 t-93 14.5t-91 29t-83.5 46t-56 69.5t-23 97zM262 1165q73 61 98.5 84t45.5 39q35 29 59 46.5t72 39t90 21.5q40 0 76 -14.5t92 -47.5q81 -53 147 -53q100 0 232 115l75 -88q-73 -61 -98.5 -84.5t-44.5 -38.5q-35 -29 -59 -46.5t-72 -39t-90 -21.5q-40 0 -76 14.5t-92 47.5 q-81 53 -148 53q-99 0 -231 -115zM391 248q0 -69 73 -109.5t185 -40.5q121 0 205 33q30 11 50.5 25.5t31 26.5t16 30t6 28.5t0.5 30.5v179q-26 -1 -40.5 -2t-55.5 -3.5t-70 -6t-75 -9t-80 -14t-74 -19.5t-68.5 -26t-53.5 -32.5t-37.5 -41t-12.5 -49.5z" />
<glyph unicode="&#xe4;" horiz-adv-x="1511" d="M119 246q0 108 101 170t298 98q70 13 151 21t135 10t102.5 3t51.5 1v39q0 231 -290 231q-96 0 -172 -16q28 -39 28 -92q0 -66 -43 -110t-110 -44q-64 0 -109 42.5t-45 113.5q0 46 18.5 82t44 58.5t69.5 39t78.5 24.5t87 12t79.5 4.5t72 0.5q126 0 225.5 -20t162 -52.5 t103.5 -77.5t57.5 -91.5t16.5 -98.5v-436q45 -21 145 -21h13q22 0 31.5 -1t22.5 -7t18 -20.5t5 -38.5q0 -51 -21.5 -60.5t-123.5 -9.5q-44 0 -66 0.5t-59.5 2.5t-58 6.5t-47.5 13.5t-41 22t-26 32.5t-15 45.5q-47 -68 -154 -103.5t-260 -35.5q-29 0 -52.5 0.5t-76 5.5 t-93 14.5t-91 29t-83.5 46t-56 69.5t-23 97zM307 1235q0 63 46 108.5t112 45.5q65 0 112.5 -45.5t47.5 -110.5q0 -62 -47 -107t-113 -45q-64 0 -111 44.5t-47 109.5zM391 248q0 -69 73 -109.5t185 -40.5q121 0 205 33q30 11 50.5 25.5t31 26.5t16 30t6 28.5t0.5 30.5v179 q-26 -1 -40.5 -2t-55.5 -3.5t-70 -6t-75 -9t-80 -14t-74 -19.5t-68.5 -26t-53.5 -32.5t-37.5 -41t-12.5 -49.5zM889 1235q0 63 46 108.5t112 45.5q65 0 112 -45.5t47 -110.5q0 -62 -46.5 -107t-112.5 -45q-64 0 -111 44.5t-47 109.5z" />
<glyph unicode="&#xe5;" horiz-adv-x="1511" d="M119 246q0 108 101 170t298 98q70 13 151 21t135 10t102.5 3t51.5 1v39q0 231 -290 231q-96 0 -172 -16q28 -39 28 -92q0 -66 -43 -110t-110 -44q-64 0 -109 42.5t-45 113.5q0 46 18.5 82t44 58.5t69.5 39t78.5 24.5t87 12t79.5 4.5t72 0.5q126 0 225.5 -20t162 -52.5 t103.5 -77.5t57.5 -91.5t16.5 -98.5v-436q45 -21 145 -21h13q22 0 31.5 -1t22.5 -7t18 -20.5t5 -38.5q0 -51 -21.5 -60.5t-123.5 -9.5q-44 0 -66 0.5t-59.5 2.5t-58 6.5t-47.5 13.5t-41 22t-26 32.5t-15 45.5q-47 -68 -154 -103.5t-260 -35.5q-29 0 -52.5 0.5t-76 5.5 t-93 14.5t-91 29t-83.5 46t-56 69.5t-23 97zM391 248q0 -69 73 -109.5t185 -40.5q121 0 205 33q30 11 50.5 25.5t31 26.5t16 30t6 28.5t0.5 30.5v179q-26 -1 -40.5 -2t-55.5 -3.5t-70 -6t-75 -9t-80 -14t-74 -19.5t-68.5 -26t-53.5 -32.5t-37.5 -41t-12.5 -49.5zM426 1268 q0 28 16 55.5t51 54.5t103 43.5t160 16.5q90 0 157.5 -16.5t103 -43t52 -54t16.5 -56.5q0 -71 -80.5 -122.5t-248.5 -51.5t-249 51t-81 123zM608 1266q0 -22 7 -37t16 -22.5t31.5 -11.5t39.5 -4.5t54 -0.5q38 0 54.5 0.5t39 4t31.5 11.5t15.5 22.5t6.5 37.5q0 16 -3.5 28 t-8 20t-16.5 13.5t-19.5 8t-28 4t-32 1.5h-39.5h-36t-29 -1t-26 -3t-20 -5t-17 -8.5t-10 -13.5t-8 -19t-2 -25z" />
<glyph unicode="&#xe6;" horiz-adv-x="2213" d="M145 229q0 98 90.5 150.5t278.5 85.5q202 35 401 35h56v88q0 231 -291 231q-98 0 -174 -16q29 -40 29 -92q0 -66 -43.5 -110t-110.5 -44q-64 0 -109 42.5t-45 113.5q0 46 18.5 82t44.5 58.5t69.5 39t78 24.5t87.5 12t80.5 4.5t72.5 0.5q326 0 467 -127q176 127 446 127 q229 0 363 -109q44 -37 74.5 -87.5t44 -102.5t19 -90.5t5.5 -73.5q0 -24 -5.5 -39t-18.5 -21t-23 -7t-31 -1h-772q11 -89 48.5 -141t93.5 -86q112 -65 286 -65q93 0 157.5 33.5t92.5 91.5q17 29 29 34.5t51 5.5h14q16 0 25.5 -1t23.5 -5t21.5 -15.5t7.5 -29.5 q0 -29 -41.5 -86.5t-120.5 -97.5q-115 -57 -303 -57q-288 0 -475 127q-27 -34 -70 -58.5t-88 -37.5t-111 -20.5t-118 -9t-129 -1.5h-55t-64 2.5t-73 6.5t-72 12.5t-72 20t-62 30.5t-52.5 43t-32.5 57t-13 73zM418 231q0 -59 65.5 -96t182.5 -37q53 0 100.5 4.5t109 18.5 t98 47.5t36.5 83.5q0 24 -11 61q-17 44 -22 82q-61 0 -152 -8q-32 -1 -86.5 -8.5t-133 -23.5t-133 -48.5t-54.5 -75.5zM1245 508h645q-3 48 -10.5 87.5t-28 83t-52 73t-85 48.5t-123.5 19q-331 0 -346 -311z" />
<glyph unicode="&#xe7;" horiz-adv-x="1388" d="M133 455q0 37 7 76t26.5 87t49.5 91t82 85t119 72.5t164.5 49t213.5 18.5q43 0 69.5 -0.5t78.5 -4.5t86.5 -12t77.5 -24.5t69 -39t44.5 -58.5t18.5 -82q0 -70 -44.5 -113t-109.5 -43q-66 0 -109.5 44t-43.5 110q0 52 22 86q-50 10 -155 10q-179 0 -269 -79.5t-90 -266.5 q0 -185 113 -268q108 -82 289 -82q62 0 109 11.5t76 32t45.5 39.5t29.5 44q13 24 25 28t59 4q23 0 34 -1t25.5 -4.5t20.5 -13.5t6 -26q0 -15 -16.5 -46.5t-62 -75t-106.5 -70.5q-117 -49 -309 -49q-139 0 -252 29t-184.5 76t-120 110t-68.5 126.5t-20 129.5zM463 -326h110 q385 0 385 97q0 94 -208 94h-39v115h86q220 0 327 -48.5t107 -160.5q0 -134 -236 -181q-143 -30 -391 -30h-141v114z" />
<glyph unicode="&#xe8;" horiz-adv-x="1417" d="M117 463q0 68 21 133t70 127t120.5 108.5t180 74.5t241.5 28q147 0 246 -32.5t173 -96.5q62 -56 96.5 -149t34.5 -187q0 -24 -5.5 -38t-18.5 -20t-23 -7t-30 -1h-797q27 -292 414 -292q225 0 295 137q12 20 25.5 24t47.5 4h15q12 0 19.5 -0.5t20 -3t19.5 -7.5t12.5 -15 t5.5 -25q0 -33 -50.5 -94.5t-141.5 -97.5q-123 -49 -315 -49q-145 0 -262.5 29t-193 76.5t-126.5 111t-72.5 129t-21.5 133.5zM338 1286q0 58 39 103t96 45q37 0 82 -27l340 -215l-72 -156l-377 123q-108 33 -108 127zM426 508h668q-3 47 -12 85.5t-32.5 82.5t-59 73.5 t-97 49.5t-141.5 20q-66 0 -118.5 -14t-85.5 -34t-57.5 -52t-36 -57t-18.5 -61t-8 -52t-2 -41z" />
<glyph unicode="&#xe9;" horiz-adv-x="1417" d="M117 463q0 68 21 133t70 127t120.5 108.5t180 74.5t241.5 28q147 0 246 -32.5t173 -96.5q62 -56 96.5 -149t34.5 -187q0 -24 -5.5 -38t-18.5 -20t-23 -7t-30 -1h-797q27 -292 414 -292q225 0 295 137q12 20 25.5 24t47.5 4h15q12 0 19.5 -0.5t20 -3t19.5 -7.5t12.5 -15 t5.5 -25q0 -33 -50.5 -94.5t-141.5 -97.5q-123 -49 -315 -49q-145 0 -262.5 29t-193 76.5t-126.5 111t-72.5 129t-21.5 133.5zM426 508h668q-3 47 -12 85.5t-32.5 82.5t-59 73.5t-97 49.5t-141.5 20q-66 0 -118.5 -14t-85.5 -34t-57.5 -52t-36 -57t-18.5 -61t-8 -52t-2 -41z M522 1192l340 215q45 27 82 27q57 0 96 -45t39 -103q0 -94 -108 -127l-377 -123z" />
<glyph unicode="&#xea;" horiz-adv-x="1417" d="M117 463q0 68 21 133t70 127t120.5 108.5t180 74.5t241.5 28q147 0 246 -32.5t173 -96.5q62 -56 96.5 -149t34.5 -187q0 -24 -5.5 -38t-18.5 -20t-23 -7t-30 -1h-797q27 -292 414 -292q225 0 295 137q12 20 25.5 24t47.5 4h15q12 0 19.5 -0.5t20 -3t19.5 -7.5t12.5 -15 t5.5 -25q0 -33 -50.5 -94.5t-141.5 -97.5q-123 -49 -315 -49q-145 0 -262.5 29t-193 76.5t-126.5 111t-72.5 129t-21.5 133.5zM346 1069l363 379l362 -379l-41 -45l-323 203l-324 -203zM426 508h668q-3 47 -12 85.5t-32.5 82.5t-59 73.5t-97 49.5t-141.5 20 q-66 0 -118.5 -14t-85.5 -34t-57.5 -52t-36 -57t-18.5 -61t-8 -52t-2 -41z" />
<glyph unicode="&#xeb;" horiz-adv-x="1417" d="M117 463q0 68 21 133t70 127t120.5 108.5t180 74.5t241.5 28q147 0 246 -32.5t173 -96.5q62 -56 96.5 -149t34.5 -187q0 -24 -5.5 -38t-18.5 -20t-23 -7t-30 -1h-797q27 -292 414 -292q225 0 295 137q12 20 25.5 24t47.5 4h15q12 0 19.5 -0.5t20 -3t19.5 -7.5t12.5 -15 t5.5 -25q0 -33 -50.5 -94.5t-141.5 -97.5q-123 -49 -315 -49q-145 0 -262.5 29t-193 76.5t-126.5 111t-72.5 129t-21.5 133.5zM260 1235q0 63 46 108.5t112 45.5q65 0 112.5 -45.5t47.5 -110.5q0 -62 -47 -107t-113 -45q-64 0 -111 44.5t-47 109.5zM426 508h668 q-3 47 -12 85.5t-32.5 82.5t-59 73.5t-97 49.5t-141.5 20q-66 0 -118.5 -14t-85.5 -34t-57.5 -52t-36 -57t-18.5 -61t-8 -52t-2 -41zM842 1235q0 63 45.5 108.5t111.5 45.5q65 0 112.5 -45.5t47.5 -110.5q0 -62 -47 -107t-113 -45q-64 0 -110.5 44.5t-46.5 109.5z" />
<glyph unicode="&#xec;" horiz-adv-x="892" d="M76 1286q0 58 39 103t96 45q37 0 82 -27l340 -215l-72 -156l-377 123q-108 33 -108 127zM207 0v137h147v555q0 58 -21 69t-120 11v137l397 17v-789h133v-137q-117 8 -264 8q-152 0 -272 -8z" />
<glyph unicode="&#xed;" horiz-adv-x="892" d="M207 0v137h147v555q0 58 -21 69t-120 11v137l397 17v-789h133v-137q-117 8 -264 8q-152 0 -272 -8zM260 1192l340 215q45 27 82 27q57 0 96 -45t39 -103q0 -94 -108 -127l-377 -123z" />
<glyph unicode="&#xee;" horiz-adv-x="892" d="M84 1069l362 379l363 -379l-41 -45l-324 203l-323 -203zM207 0v137h147v555q0 58 -21 69t-120 11v137l397 17v-789h133v-137q-117 8 -264 8q-152 0 -272 -8z" />
<glyph unicode="&#xef;" horiz-adv-x="892" d="M-2 1235q0 63 46 108.5t112 45.5q65 0 112 -45.5t47 -110.5q0 -62 -46.5 -107t-112.5 -45q-64 0 -111 44.5t-47 109.5zM207 0v137h147v555q0 58 -21 69t-120 11v137l397 17v-789h133v-137q-117 8 -264 8q-152 0 -272 -8zM580 1235q0 63 45.5 108.5t111.5 45.5 q65 0 112.5 -45.5t47.5 -110.5q0 -62 -47 -107t-113 -45q-64 0 -110.5 44.5t-46.5 109.5z" />
<glyph unicode="&#xf0;" d="M117 444q0 94 39.5 180t116.5 156t205.5 112t291.5 42q204 0 354 -107q-23 223 -219 381l-282 -114l-54 129l195 77q-180 91 -385 103l18 106q399 0 627 -104l307 125l51 -129l-208 -84q32 -24 75 -70q31 -33 59 -74t59 -101.5t50 -140.5t19 -165v-311 q0 -206 -171.5 -338.5t-488.5 -132.5q-142 0 -257 28t-188.5 74t-123 107t-70 123.5t-20.5 127.5zM424 469q0 -36 1.5 -60.5t8.5 -65t20 -69t39 -61.5t62.5 -53.5t93 -34.5t127.5 -14q75 0 133 14t95.5 40t63 57t38 72.5t17.5 78t5 80.5q0 179 -94 272.5t-260 93.5 q-57 0 -104.5 -9t-81 -22.5t-60.5 -36t-44 -43t-29 -50.5t-18 -51t-9 -52t-3.5 -46t-0.5 -40z" />
<glyph unicode="&#xf1;" horiz-adv-x="1718" d="M199 0v137h147v555q0 58 -22.5 69t-124.5 11v137l385 17v-219q18 28 41 54t63.5 57.5t88.5 54t118 38t149 15.5q39 0 70.5 -2t74.5 -9t76 -20t68 -37t57.5 -57.5t37 -83.5t14.5 -113v-467h147v-137q-120 8 -282 8l-285 -8v137h147v473q0 111 -37.5 156t-134.5 45 q-42 0 -88.5 -8.5t-99.5 -31t-94.5 -56.5t-69 -91t-27.5 -128v-359h148v-137q-120 8 -283 8zM365 1165q73 61 98.5 84.5t44.5 38.5q35 29 59 46.5t72 39t90 21.5q40 0 76 -14.5t92 -47.5q81 -53 147 -53q100 0 232 115l76 -88q-73 -61 -98.5 -84t-45.5 -39 q-35 -29 -59 -46.5t-72 -39t-90 -21.5q-40 0 -76 14.5t-92 47.5q-81 53 -147 53q-100 0 -232 -115z" />
<glyph unicode="&#xf2;" d="M117 444q0 70 21.5 137.5t71.5 132t124 113t188 78t254 29.5q139 0 252 -29t187.5 -77t125.5 -112.5t73 -132.5t22 -139q0 -68 -22 -131.5t-72.5 -124t-125 -105.5t-188 -72t-252.5 -27t-252 27t-187.5 72t-125 105.5t-72.5 124t-22 131.5zM406 1286q0 58 39 103t96 45 q37 0 82 -27l340 -215l-72 -156l-377 123q-108 33 -108 127zM424 469q0 -68 2.5 -104t20.5 -92.5t53 -86t105 -52.5t171 -23t171 23t105 52.5t53 86t20.5 92.5t2.5 104q0 46 -1 70.5t-7.5 68t-19 67.5t-38 55.5t-62.5 48t-94 28.5t-130 12t-130 -12t-94 -28t-62.5 -47.5 t-38 -55.5t-19 -67.5t-7.5 -68t-1 -71.5z" />
<glyph unicode="&#xf3;" d="M117 444q0 70 21.5 137.5t71.5 132t124 113t188 78t254 29.5q139 0 252 -29t187.5 -77t125.5 -112.5t73 -132.5t22 -139q0 -68 -22 -131.5t-72.5 -124t-125 -105.5t-188 -72t-252.5 -27t-252 27t-187.5 72t-125 105.5t-72.5 124t-22 131.5zM424 469q0 -68 2.5 -104 t20.5 -92.5t53 -86t105 -52.5t171 -23t171 23t105 52.5t53 86t20.5 92.5t2.5 104q0 46 -1 70.5t-7.5 68t-19 67.5t-38 55.5t-62.5 48t-94 28.5t-130 12t-130 -12t-94 -28t-62.5 -47.5t-38 -55.5t-19 -67.5t-7.5 -68t-1 -71.5zM590 1192l340 215q45 27 82 27q57 0 96 -45 t39 -103q0 -94 -109 -127l-376 -123z" />
<glyph unicode="&#xf4;" d="M117 444q0 70 21.5 137.5t71.5 132t124 113t188 78t254 29.5q139 0 252 -29t187.5 -77t125.5 -112.5t73 -132.5t22 -139q0 -68 -22 -131.5t-72.5 -124t-125 -105.5t-188 -72t-252.5 -27t-252 27t-187.5 72t-125 105.5t-72.5 124t-22 131.5zM414 1069l362 379l363 -379 l-41 -45l-324 203l-323 -203zM424 469q0 -68 2.5 -104t20.5 -92.5t53 -86t105 -52.5t171 -23t171 23t105 52.5t53 86t20.5 92.5t2.5 104q0 46 -1 70.5t-7.5 68t-19 67.5t-38 55.5t-62.5 48t-94 28.5t-130 12t-130 -12t-94 -28t-62.5 -47.5t-38 -55.5t-19 -67.5t-7.5 -68 t-1 -71.5z" />
<glyph unicode="&#xf5;" d="M117 444q0 70 21.5 137.5t71.5 132t124 113t188 78t254 29.5q139 0 252 -29t187.5 -77t125.5 -112.5t73 -132.5t22 -139q0 -68 -22 -131.5t-72.5 -124t-125 -105.5t-188 -72t-252.5 -27t-252 27t-187.5 72t-125 105.5t-72.5 124t-22 131.5zM283 1165q73 61 98.5 84.5 t44.5 38.5q35 29 59 46.5t72 39t90 21.5q40 0 76 -14.5t92 -47.5q81 -53 148 -53q99 0 231 115l76 -88q-73 -61 -98.5 -84t-45.5 -39q-35 -29 -59 -46.5t-72 -39t-90 -21.5q-40 0 -76 14.5t-92 47.5q-81 53 -147 53q-100 0 -232 -115zM424 469q0 -68 2.5 -104t20.5 -92.5 t53 -86t105 -52.5t171 -23t171 23t105 52.5t53 86t20.5 92.5t2.5 104q0 46 -1 70.5t-7.5 68t-19 67.5t-38 55.5t-62.5 48t-94 28.5t-130 12t-130 -12t-94 -28t-62.5 -47.5t-38 -55.5t-19 -67.5t-7.5 -68t-1 -71.5z" />
<glyph unicode="&#xf6;" d="M117 444q0 70 21.5 137.5t71.5 132t124 113t188 78t254 29.5q139 0 252 -29t187.5 -77t125.5 -112.5t73 -132.5t22 -139q0 -68 -22 -131.5t-72.5 -124t-125 -105.5t-188 -72t-252.5 -27t-252 27t-187.5 72t-125 105.5t-72.5 124t-22 131.5zM328 1235q0 63 45.5 108.5 t111.5 45.5q65 0 112.5 -45.5t47.5 -110.5q0 -62 -47 -107t-113 -45q-64 0 -110.5 44.5t-46.5 109.5zM424 469q0 -68 2.5 -104t20.5 -92.5t53 -86t105 -52.5t171 -23t171 23t105 52.5t53 86t20.5 92.5t2.5 104q0 46 -1 70.5t-7.5 68t-19 67.5t-38 55.5t-62.5 48t-94 28.5 t-130 12t-130 -12t-94 -28t-62.5 -47.5t-38 -55.5t-19 -67.5t-7.5 -68t-1 -71.5zM909 1235q0 63 46 108.5t112 45.5q65 0 112.5 -45.5t47.5 -110.5q0 -62 -47 -107t-113 -45q-64 0 -111 44.5t-47 109.5z" />
<glyph unicode="&#xf7;" horiz-adv-x="2377" d="M201 512q0 88 118 88h1739q119 0 119 -88t-106 -88h-1764q-106 0 -106 88zM1014 -70q0 72 52 124t124 52t124 -52t52 -124t-52 -124t-124 -52t-124 52t-52 124zM1014 1094q0 72 52 124t124 52t124 -52t52 -124t-52 -124t-124 -52t-124 52t-52 124z" />
<glyph unicode="&#xf8;" d="M117 444q0 70 21.5 137.5t71.5 132t124 113t188 78t254 29.5q162 0 279 -37l200 250l88 -74l-174 -219q69 -36 120.5 -83.5t78.5 -90.5t43.5 -91.5t20.5 -80.5t4 -64q0 -68 -22 -131.5t-72.5 -124t-125 -105.5t-188 -72t-252.5 -27q-158 0 -278 32l-201 -252l-88 74 l176 221q-80 36 -136 87.5t-83 107t-38 101t-11 89.5zM389 449q0 -56 3 -93.5t24 -92.5t61 -89l494 619q-73 26 -195 26q-75 0 -134.5 -11.5t-99.5 -30t-69 -48t-45 -59t-25 -70t-11.5 -73.5t-2.5 -78zM584 121q76 -23 192 -23q74 0 132.5 10t99 26.5t69.5 43t45.5 54 t25.5 66t12 72.5t3 79q0 94 -17.5 166.5t-72.5 119.5z" />
<glyph unicode="&#xf9;" horiz-adv-x="1718" d="M199 772v137l419 17v-697q0 -29 1 -41.5t7 -31.5t19 -27t36.5 -16.5t60 -11.5t89.5 -3q47 0 89 5t89.5 20t81 39t56 65.5t22.5 96.5v368q0 58 -22.5 69t-124.5 11v137l420 17v-709q0 -58 22.5 -69t124.5 -11v-137l-403 -16v133q-133 -133 -398 -133q-57 0 -101 3t-99 11 t-95 26t-75 45t-53.5 71.5t-18.5 101.5v450q0 58 -22.5 69t-124.5 11zM487 1286q0 57 39.5 102.5t96.5 45.5q37 0 82 -27l339 -215l-71 -156l-377 123q-109 33 -109 127z" />
<glyph unicode="&#xfa;" horiz-adv-x="1718" d="M199 772v137l419 17v-697q0 -29 1 -41.5t7 -31.5t19 -27t36.5 -16.5t60 -11.5t89.5 -3q47 0 89 5t89.5 20t81 39t56 65.5t22.5 96.5v368q0 58 -22.5 69t-124.5 11v137l420 17v-709q0 -58 22.5 -69t124.5 -11v-137l-403 -16v133q-133 -133 -398 -133q-57 0 -101 3t-99 11 t-95 26t-75 45t-53.5 71.5t-18.5 101.5v450q0 58 -22.5 69t-124.5 11zM672 1192l340 215q45 27 82 27q57 0 96 -45t39 -103q0 -94 -109 -127l-377 -123z" />
<glyph unicode="&#xfb;" horiz-adv-x="1718" d="M199 772v137l419 17v-697q0 -29 1 -41.5t7 -31.5t19 -27t36.5 -16.5t60 -11.5t89.5 -3q47 0 89 5t89.5 20t81 39t56 65.5t22.5 96.5v368q0 58 -22.5 69t-124.5 11v137l420 17v-709q0 -58 22.5 -69t124.5 -11v-137l-403 -16v133q-133 -133 -398 -133q-57 0 -101 3t-99 11 t-95 26t-75 45t-53.5 71.5t-18.5 101.5v450q0 58 -22.5 69t-124.5 11zM496 1069l362 379l363 -379l-41 -45l-324 203l-324 -203z" />
<glyph unicode="&#xfc;" horiz-adv-x="1718" d="M199 772v137l419 17v-697q0 -29 1 -41.5t7 -31.5t19 -27t36.5 -16.5t60 -11.5t89.5 -3q47 0 89 5t89.5 20t81 39t56 65.5t22.5 96.5v368q0 58 -22.5 69t-124.5 11v137l420 17v-709q0 -58 22.5 -69t124.5 -11v-137l-403 -16v133q-133 -133 -398 -133q-57 0 -101 3t-99 11 t-95 26t-75 45t-53.5 71.5t-18.5 101.5v450q0 58 -22.5 69t-124.5 11zM410 1235q0 63 45.5 108.5t111.5 45.5q65 0 112.5 -45.5t47.5 -110.5q0 -62 -47 -107t-113 -45q-64 0 -110.5 44.5t-46.5 109.5zM991 1235q0 63 46 108.5t112 45.5q65 0 112.5 -45.5t47.5 -110.5 q0 -62 -47 -107t-113 -45q-64 0 -111 44.5t-47 109.5z" />
<glyph unicode="&#xfd;" horiz-adv-x="1636" d="M92 -193q0 67 43 106.5t103 39.5t102.5 -39t42.5 -107q0 -54 -29 -92l-6 -10q17 -4 29 -4q68 0 123.5 15t89 33.5t62.5 51t41 52t28 51.5q49 90 49 96q0 5 -12 25l-484 747h-155v137q115 -8 260 -8q152 0 283 8v-137h-82l331 -514l273 514h-97v137q99 -8 232 -8 q97 0 207 8v-137h-150l-489 -917q-42 -79 -110 -135.5t-143 -83.5t-138.5 -38.5t-122.5 -11.5q-124 0 -202.5 64.5t-78.5 156.5zM631 1192l340 215q45 27 82 27q57 0 96 -45t39 -103q0 -94 -109 -127l-377 -123z" />
<glyph unicode="&#xfe;" horiz-adv-x="1718" d="M172 -260h147v962v486q0 58 -22.5 69t-124.5 11v137l403 16v-585q176 90 416 90q124 0 225.5 -27.5t169 -73.5t113.5 -107.5t66 -126.5t20 -134q0 -95 -41 -179.5t-119 -150.5t-202.5 -104.5t-280.5 -38.5q-200 0 -350 92v-336h147v-137l-284 8l-283 -8v137zM592 262 q123 -164 319 -164q164 0 265.5 95.5t101.5 261.5q0 153 -88.5 248.5t-251.5 95.5q-85 0 -181 -28.5t-165 -100.5v-408z" />
<glyph unicode="&#xff;" horiz-adv-x="1636" d="M92 -193q0 67 43 106.5t103 39.5t102.5 -39t42.5 -107q0 -54 -29 -92l-6 -10q17 -4 29 -4q68 0 123.5 15t89 33.5t62.5 51t41 52t28 51.5q49 90 49 96q0 5 -12 25l-484 747h-155v137q115 -8 260 -8q152 0 283 8v-137h-82l331 -514l273 514h-97v137q99 -8 232 -8 q97 0 207 8v-137h-150l-489 -917q-42 -79 -110 -135.5t-143 -83.5t-138.5 -38.5t-122.5 -11.5q-124 0 -202.5 64.5t-78.5 156.5zM369 1235q0 63 45.5 108.5t111.5 45.5q65 0 112.5 -45.5t47.5 -110.5q0 -62 -47 -107t-113 -45q-64 0 -110.5 44.5t-46.5 109.5zM950 1235 q0 63 46 108.5t112 45.5q65 0 112.5 -45.5t47.5 -110.5q0 -62 -47 -107t-113 -45q-64 0 -111 44.5t-47 109.5z" />
<glyph unicode="&#x152;" horiz-adv-x="3072" d="M236 692q0 116 36.5 224t115 204t191.5 166.5t277 112t361 41.5q81 0 237 -17q173 -18 234 -18h1103l80 -422h-170q-11 56 -31.5 100.5t-45 74t-60.5 51t-68.5 32.5t-79 17.5t-82.5 8t-87 1.5h-404v-471h262q43 0 69 1t63.5 6t60.5 16t46 29t35 48t13 70h170v-478h-170 q-1 35 -11.5 62t-24.5 44.5t-38.5 30t-45 19t-54 10t-55.5 4t-58 0.5h-262v-522h432q89 0 152.5 7.5t123.5 28t102 57.5t75.5 96t56.5 143h170l-119 -469h-1148q-75 0 -201 -14q-198 -21 -273 -21q-194 0 -356.5 39.5t-276 107.5t-192.5 160.5t-116 198.5t-37 221zM571 727 q0 -95 21.5 -184t71.5 -174.5t125 -148.5t191 -101.5t259 -38.5q67 0 113 5.5t82 21.5t57 39t35 63.5t19.5 90t6.5 122.5l2 283l-2 262q-1 77 -5 125t-16 92.5t-32.5 68t-56 41.5t-84.5 24.5t-121 6.5q-139 0 -252.5 -33.5t-189.5 -90t-127 -134t-74 -162.5t-23 -178z" />
<glyph unicode="&#x153;" horiz-adv-x="2377" d="M117 461q0 69 21.5 135t71.5 128t123 108t183.5 74t245.5 28q334 0 506 -160q180 160 487 160q229 0 363 -109q44 -37 74.5 -87.5t44 -102.5t19 -90.5t5.5 -73.5q0 -24 -5.5 -39t-18.5 -21t-23 -7t-31 -1h-772q8 -62 31 -109t49 -72t61 -46q112 -65 287 -65 q93 0 157.5 33.5t92.5 91.5q17 29 29 34.5t51 5.5h14q16 0 25.5 -1t23.5 -5t21.5 -15.5t7.5 -29.5q0 -29 -41.5 -86.5t-120.5 -97.5q-115 -57 -303 -57q-340 0 -524 166q-171 -166 -510 -166q-137 0 -249 29t-184 76.5t-121 111t-70 128.5t-21 132zM389 471q0 -33 1.5 -57.5 t9 -66t21 -72t41.5 -66t66.5 -58t98.5 -38t135 -15.5q74 0 133.5 15t98 37.5t66.5 57t42 65t22 71.5t9.5 66.5t1.5 58.5q0 32 -1.5 55t-9 62.5t-21 67.5t-41.5 61.5t-66.5 54.5t-98.5 35t-135 14q-74 0 -133.5 -14t-98 -35t-66.5 -53t-42 -61t-22 -67t-9.5 -62.5t-1.5 -55.5 zM1409 508h645q-3 48 -10.5 87.5t-28 83t-52 73t-85 48.5t-123.5 19q-331 0 -346 -311z" />
<glyph unicode="&#x178;" horiz-adv-x="2281" d="M109 1268v137l360 -8q280 0 395 8v-137h-119l472 -506l469 506h-117v137l319 -8q160 0 285 8v-137h-225l-656 -705v-426h215v-137l-366 8l-369 -8v137h217v424l-655 707h-225zM639 1671q0 63 46 108.5t112 45.5q65 0 112 -45.5t47 -110.5q0 -62 -46.5 -106.5 t-112.5 -44.5q-64 0 -111 44t-47 109zM1327 1671q0 63 46 108.5t112 45.5q65 0 112.5 -45.5t47.5 -110.5q0 -62 -47 -106.5t-113 -44.5q-64 0 -111 44t-47 109z" />
<glyph unicode="&#x2c6;" d="M414 1069l362 379l363 -379l-41 -45l-324 203l-323 -203z" />
<glyph unicode="&#x2dc;" d="M283 1165q73 61 98.5 84.5t44.5 38.5q35 29 59 46.5t72 39t90 21.5q40 0 76 -14.5t92 -47.5q81 -53 148 -53q99 0 231 115l76 -88q-73 -61 -98.5 -84t-45.5 -39q-35 -29 -59 -46.5t-72 -39t-90 -21.5q-40 0 -76 14.5t-92 47.5q-81 53 -147 53q-100 0 -232 -115z" />
<glyph unicode="&#x2000;" horiz-adv-x="967" />
<glyph unicode="&#x2001;" horiz-adv-x="1935" />
<glyph unicode="&#x2002;" horiz-adv-x="967" />
<glyph unicode="&#x2003;" horiz-adv-x="1935" />
<glyph unicode="&#x2004;" horiz-adv-x="645" />
<glyph unicode="&#x2005;" horiz-adv-x="483" />
<glyph unicode="&#x2006;" horiz-adv-x="322" />
<glyph unicode="&#x2007;" horiz-adv-x="322" />
<glyph unicode="&#x2008;" horiz-adv-x="241" />
<glyph unicode="&#x2009;" horiz-adv-x="387" />
<glyph unicode="&#x200a;" horiz-adv-x="107" />
<glyph unicode="&#x2010;" horiz-adv-x="1058" d="M68 332v246h790v-246h-790z" />
<glyph unicode="&#x2011;" horiz-adv-x="1058" d="M68 332v246h790v-246h-790z" />
<glyph unicode="&#x2012;" horiz-adv-x="1058" d="M68 332v246h790v-246h-790z" />
<glyph unicode="&#x2013;" d="M35 504v114h1483v-114h-1483z" />
<glyph unicode="&#x2014;" horiz-adv-x="3106" d="M70 504v114h2967v-114h-2967z" />
<glyph unicode="&#x2018;" horiz-adv-x="892" d="M229 946q0 85 26 164.5t64 133.5t80 95.5t74.5 61.5t46.5 20q21 0 41.5 -21t20.5 -40q0 -25 -27 -43q-24 -17 -37.5 -26.5t-46 -41t-53 -62.5t-41.5 -82t-29 -108q41 27 98 27q79 0 128 -51.5t49 -124.5t-49 -124.5t-128 -51.5q-94 0 -155.5 78t-61.5 196z" />
<glyph unicode="&#x2019;" horiz-adv-x="892" d="M270 1245q0 73 48.5 124.5t127.5 51.5q94 0 156 -78t62 -196q0 -85 -26 -164.5t-64 -133.5t-80 -95.5t-74.5 -61.5t-46.5 -20q-21 0 -41.5 21t-20.5 40q0 25 27 43q24 17 37.5 26.5t46 41t53 62.5t41.5 82t29 108q-42 -27 -99 -27q-79 0 -127.5 51.5t-48.5 124.5z" />
<glyph unicode="&#x201a;" horiz-adv-x="892" d="M250 180q0 73 48.5 124.5t127.5 51.5q94 0 155.5 -78t61.5 -196q0 -85 -26 -164.5t-64 -133.5t-80 -95.5t-74.5 -61.5t-46.5 -20q-21 0 -41 21t-20 40q0 26 26 43q24 17 37.5 26.5t46 41t53 62.5t41.5 82t29 108q-41 -27 -98 -27q-79 0 -127.5 51.5t-48.5 124.5z" />
<glyph unicode="&#x201c;" horiz-adv-x="1492" d="M229 946q0 85 26 164.5t64 133.5t80 95.5t74.5 61.5t46.5 20q21 0 41.5 -21t20.5 -40q0 -25 -27 -43q-24 -17 -37.5 -26.5t-46 -41t-53 -62.5t-41.5 -82t-29 -108q41 27 98 27q79 0 128 -51.5t49 -124.5t-49 -124.5t-128 -51.5q-94 0 -155.5 78t-61.5 196zM829 946 q0 85 26 164.5t64 133.5t80 95.5t74.5 61.5t46.5 20q21 0 41.5 -21t20.5 -40q0 -25 -27 -43q-24 -17 -37.5 -26.5t-46 -41t-53 -62.5t-41.5 -82t-29 -108q42 27 99 27q79 0 127.5 -51.5t48.5 -124.5t-48.5 -124.5t-127.5 -51.5q-94 0 -156 78t-62 196z" />
<glyph unicode="&#x201d;" horiz-adv-x="1492" d="M270 1245q0 73 48.5 124.5t127.5 51.5q94 0 156 -78t62 -196q0 -85 -26 -164.5t-64 -133.5t-80 -95.5t-74.5 -61.5t-46.5 -20q-21 0 -41.5 21t-20.5 40q0 25 27 43q24 17 37.5 26.5t46 41t53 62.5t41.5 82t29 108q-42 -27 -99 -27q-79 0 -127.5 51.5t-48.5 124.5z M870 1245q0 73 49 124.5t128 51.5q94 0 155.5 -78t61.5 -196q0 -85 -26 -164.5t-64 -133.5t-80 -95.5t-74.5 -61.5t-46.5 -20q-21 0 -41.5 21t-20.5 40q0 25 27 43q24 17 37.5 26.5t46 41t53 62.5t41.5 82t29 108q-41 -27 -98 -27q-79 0 -128 51.5t-49 124.5z" />
<glyph unicode="&#x201e;" horiz-adv-x="1492" d="M270 180q0 73 48.5 124.5t127.5 51.5q94 0 156 -78t62 -196q0 -85 -26 -164.5t-64 -133.5t-80 -95.5t-74.5 -61.5t-46.5 -20q-21 0 -41.5 21t-20.5 40q0 25 27 43q24 17 37.5 26.5t46 41t53 62.5t41.5 82t29 108q-42 -27 -99 -27q-79 0 -127.5 51.5t-48.5 124.5zM870 180 q0 73 49 124.5t128 51.5q94 0 155.5 -78t61.5 -196q0 -85 -26 -164.5t-64 -133.5t-80 -95.5t-74.5 -61.5t-46.5 -20q-21 0 -41.5 21t-20.5 40q0 25 27 43q24 17 37.5 26.5t46 41t53 62.5t41.5 82t29 108q-41 -27 -98 -27q-79 0 -128 51.5t-49 124.5z" />
<glyph unicode="&#x2022;" horiz-adv-x="2377" d="M883 438q0 126 90.5 216.5t216.5 90.5t216.5 -90.5t90.5 -216.5t-90.5 -216.5t-216.5 -90.5t-216.5 90.5t-90.5 216.5z" />
<glyph unicode="&#x2026;" horiz-adv-x="2129" d="M270 176q0 72 52 124t124 52t124.5 -52t52.5 -124t-52.5 -124t-124.5 -52t-124 52t-52 124zM889 176q0 72 52 124t124 52t124 -52t52 -124t-52 -124t-124 -52t-124 52t-52 124zM1507 176q0 72 52 124t124 52t124.5 -52t52.5 -124t-52.5 -124t-124.5 -52t-124 52t-52 124z " />
<glyph unicode="&#x202f;" horiz-adv-x="387" />
<glyph unicode="&#x2039;" horiz-adv-x="1155" d="M330 455q0 26 20 39q235 142 363 391q12 24 41 24h24q19 0 32 -12.5t13 -32.5q0 -8 -2 -12q-65 -216 -205 -397q141 -183 205 -398q2 -4 2 -12q0 -19 -13 -32t-32 -13h-24q-27 0 -41 25q-125 248 -363 391q-20 13 -20 39z" />
<glyph unicode="&#x203a;" horiz-adv-x="1155" d="M332 45v12q64 215 205 398q-140 181 -205 397v12q0 20 12.5 32.5t32.5 12.5h24q27 0 39 -24q131 -249 363 -391q22 -15 22 -39t-22 -39q-234 -143 -363 -391q-14 -25 -39 -25h-24q-20 0 -32.5 13t-12.5 32z" />
<glyph unicode="&#x205f;" horiz-adv-x="483" />
<glyph unicode="&#x20ac;" horiz-adv-x="1859" d="M160 557l18 45q10 29 41 29h117q-4 50 -4 71q0 22 4 72h-133q-24 0 -37.5 20t-5.5 42l18 45q9 28 41 28h139q54 197 205 330q227 201 602 201q195 0 332 -64l100 58q9 6 23 6h31q19 0 32 -13t13 -32v-260q0 -19 -13 -32t-32 -13h-103q-17 0 -29.5 10.5t-15.5 25.5 q-14 85 -92 132t-180 47q-281 0 -424 -158q-83 -96 -109 -238h750q22 0 36.5 -14t8.5 -31l-20 -61q-10 -29 -43 -29h-744l-2 -72l2 -71h651q23 0 37 -14t8 -31l-20 -62q-9 -28 -41 -28h-623q26 -142 109 -238q143 -158 424 -158q101 0 179.5 47.5t92.5 131.5q3 15 15.5 25.5 t29.5 10.5h103q19 0 32 -13t13 -32v-260q0 -19 -13 -32t-32 -13h-31q-14 0 -23 6l-100 58q-137 -64 -332 -64q-375 0 -602 201q-151 133 -205 330h-155q-24 0 -37.5 19.5t-5.5 41.5z" />
<glyph unicode="&#x2122;" horiz-adv-x="2994" d="M84 1153l35 252h1044l33 -252h-102q-13 100 -59.5 135t-151.5 35h-148v-657h185v-82q-59 4 -279 4q-222 0 -281 -4v82h185v657h-148q-105 0 -151.5 -35t-59.5 -135h-102zM1323 584v82h131v677h-131v82h289q16 0 24.5 -1t22 -9t22.5 -24l371 -672l371 672q9 16 22.5 24 t22 9t24.5 1h289v-82h-131v-677h131v-82l-211 4l-211 -4v82h131v673h-2l-399 -721q-19 -34 -66 -34q-15 0 -23 1t-21.5 9t-22.5 24l-389 705h-2v-657h131v-82l-187 4z" />
<glyph unicode="&#x25fc;" horiz-adv-x="911" d="M0 0v911h911v-911h-911z" />
<glyph unicode="&#xfb03;" horiz-adv-x="2678" d="M115 772v137h204v185q0 62 28.5 113t74 86t109.5 62t128.5 42t137.5 25t130.5 13t112.5 3q235 0 338 -107q197 107 566 107q81 0 147 -12.5t109 -34t74 -47.5t47.5 -56.5t24 -57t7.5 -52.5q0 -79 -49 -119.5t-109 -40.5q-59 0 -107 40.5t-48 117.5q0 67 49 116 q-72 31 -182 31q-177 0 -301 -47q-44 -17 -75 -39.5t-46 -40.5t-23 -42.5t-9 -36.5t-1 -32v-176h504l2 6l401 17v-795h148v-137q-109 8 -277 8q-151 0 -274 -8v137h147v561q0 51 -12 62.5t-57 11.5h-566v-635h148v-137q-109 8 -277 8q-151 0 -274 -8v137h147v635h-637v-635 h148v-137q-109 8 -277 8q-151 0 -274 -8v137h147v635h-204zM559 909h653v129q-79 40 -79 138q0 69 47 116q-70 31 -176 31q-181 0 -299 -51q-41 -17 -70.5 -38.5t-43.5 -39.5t-22 -42t-9 -36t-1 -31v-176z" />
</font>
</defs>
</svg>
